<mxfile host="app.diagrams.net" agent="Mozilla/5.0 (Windows NT 10.0; Win64; x64) AppleWebKit/537.36 (KHTML, like Gecko) Chrome/127.0.0.0 Safari/537.36" version="24.7.13" pages="6">
  <diagram name="Trang-1" id="wxxuo0VEmu-g8YHq1YhE">
    <mxGraphModel dx="934" dy="455" grid="1" gridSize="10" guides="1" tooltips="1" connect="1" arrows="1" fold="1" page="1" pageScale="1" pageWidth="827" pageHeight="1169" math="0" shadow="0">
      <root>
        <mxCell id="0" />
        <mxCell id="1" parent="0" />
        <mxCell id="pMV6OHs9eJrk2TMWCFJE-3" value="category" style="swimlane;fontStyle=0;childLayout=stackLayout;horizontal=1;startSize=30;horizontalStack=0;resizeParent=1;resizeParentMax=0;resizeLast=0;collapsible=1;marginBottom=0;whiteSpace=wrap;html=1;rounded=0;" vertex="1" parent="1">
          <mxGeometry x="40" y="40" width="140" height="150" as="geometry" />
        </mxCell>
        <mxCell id="pMV6OHs9eJrk2TMWCFJE-4" value="id" style="text;strokeColor=none;fillColor=none;align=left;verticalAlign=middle;spacingLeft=4;spacingRight=4;overflow=hidden;points=[[0,0.5],[1,0.5]];portConstraint=eastwest;rotatable=0;whiteSpace=wrap;html=1;rounded=0;" vertex="1" parent="pMV6OHs9eJrk2TMWCFJE-3">
          <mxGeometry y="30" width="140" height="30" as="geometry" />
        </mxCell>
        <mxCell id="pMV6OHs9eJrk2TMWCFJE-40" value="id" style="text;strokeColor=none;fillColor=none;align=left;verticalAlign=middle;spacingLeft=4;spacingRight=4;overflow=hidden;points=[[0,0.5],[1,0.5]];portConstraint=eastwest;rotatable=0;whiteSpace=wrap;html=1;rounded=0;" vertex="1" parent="pMV6OHs9eJrk2TMWCFJE-3">
          <mxGeometry y="60" width="140" height="30" as="geometry" />
        </mxCell>
        <mxCell id="pMV6OHs9eJrk2TMWCFJE-5" value="name" style="text;strokeColor=none;fillColor=none;align=left;verticalAlign=middle;spacingLeft=4;spacingRight=4;overflow=hidden;points=[[0,0.5],[1,0.5]];portConstraint=eastwest;rotatable=0;whiteSpace=wrap;html=1;rounded=0;" vertex="1" parent="pMV6OHs9eJrk2TMWCFJE-3">
          <mxGeometry y="90" width="140" height="30" as="geometry" />
        </mxCell>
        <mxCell id="pMV6OHs9eJrk2TMWCFJE-6" value="status" style="text;strokeColor=none;fillColor=none;align=left;verticalAlign=middle;spacingLeft=4;spacingRight=4;overflow=hidden;points=[[0,0.5],[1,0.5]];portConstraint=eastwest;rotatable=0;whiteSpace=wrap;html=1;rounded=0;" vertex="1" parent="pMV6OHs9eJrk2TMWCFJE-3">
          <mxGeometry y="120" width="140" height="30" as="geometry" />
        </mxCell>
        <mxCell id="pMV6OHs9eJrk2TMWCFJE-11" value="Product" style="swimlane;fontStyle=0;childLayout=stackLayout;horizontal=1;startSize=30;horizontalStack=0;resizeParent=1;resizeParentMax=0;resizeLast=0;collapsible=1;marginBottom=0;whiteSpace=wrap;html=1;rounded=0;" vertex="1" parent="1">
          <mxGeometry x="320" y="40" width="140" height="170" as="geometry" />
        </mxCell>
        <mxCell id="pMV6OHs9eJrk2TMWCFJE-12" value="id&lt;div&gt;&lt;br&gt;&lt;div&gt;name&lt;/div&gt;&lt;div&gt;&lt;br&gt;&lt;/div&gt;&lt;div&gt;price&lt;/div&gt;&lt;div&gt;&lt;br&gt;&lt;/div&gt;&lt;div&gt;category_id&lt;/div&gt;&lt;div&gt;&lt;br&gt;&lt;/div&gt;&lt;div&gt;status&lt;/div&gt;&lt;/div&gt;" style="text;strokeColor=none;fillColor=none;align=left;verticalAlign=middle;spacingLeft=4;spacingRight=4;overflow=hidden;points=[[0,0.5],[1,0.5]];portConstraint=eastwest;rotatable=0;whiteSpace=wrap;html=1;rounded=0;" vertex="1" parent="pMV6OHs9eJrk2TMWCFJE-11">
          <mxGeometry y="30" width="140" height="140" as="geometry" />
        </mxCell>
        <mxCell id="pMV6OHs9eJrk2TMWCFJE-16" value="" style="edgeStyle=entityRelationEdgeStyle;fontSize=12;html=1;endArrow=ERzeroToMany;startArrow=ERmandOne;rounded=0;entryX=0;entryY=0.5;entryDx=0;entryDy=0;" edge="1" parent="1" source="pMV6OHs9eJrk2TMWCFJE-4" target="pMV6OHs9eJrk2TMWCFJE-12">
          <mxGeometry width="100" height="100" relative="1" as="geometry">
            <mxPoint x="190" y="110" as="sourcePoint" />
            <mxPoint x="470" y="170" as="targetPoint" />
          </mxGeometry>
        </mxCell>
        <mxCell id="pMV6OHs9eJrk2TMWCFJE-17" value="users " style="swimlane;fontStyle=0;childLayout=stackLayout;horizontal=1;startSize=26;horizontalStack=0;resizeParent=1;resizeParentMax=0;resizeLast=0;collapsible=1;marginBottom=0;align=center;fontSize=14;verticalAlign=middle;spacingLeft=4;spacingRight=4;fontFamily=Helvetica;fontColor=default;fillColor=none;gradientColor=none;rounded=0;" vertex="1" parent="1">
          <mxGeometry x="40" y="320" width="160" height="246" as="geometry" />
        </mxCell>
        <mxCell id="pMV6OHs9eJrk2TMWCFJE-21" value="&lt;div&gt;&lt;span style=&quot;color: rgb(34, 34, 34); font-family: &amp;quot;Roboto Flex&amp;quot;; font-size: 16px; text-align: left; text-wrap: wrap; background-color: rgb(255, 255, 255);&quot;&gt;id&lt;/span&gt;&lt;/div&gt;&lt;div&gt;&lt;span style=&quot;color: rgb(34, 34, 34); font-family: &amp;quot;Roboto Flex&amp;quot;; font-size: 16px; text-align: left; text-wrap: wrap; background-color: rgb(255, 255, 255);&quot;&gt;&lt;br&gt;&lt;/span&gt;&lt;/div&gt;&lt;div&gt;&lt;span style=&quot;color: rgb(34, 34, 34); font-family: &amp;quot;Roboto Flex&amp;quot;; font-size: 16px; text-align: left; text-wrap: wrap; background-color: rgb(255, 255, 255);&quot;&gt;name&amp;nbsp;&lt;/span&gt;&lt;span style=&quot;color: rgb(34, 34, 34); font-family: &amp;quot;Roboto Flex&amp;quot;; font-size: 16px; text-align: left; text-wrap: wrap; background-color: rgb(255, 255, 255);&quot;&gt;&lt;br&gt;&lt;/span&gt;&lt;/div&gt;&lt;div&gt;&lt;span style=&quot;color: rgb(34, 34, 34); font-family: &amp;quot;Roboto Flex&amp;quot;; font-size: 16px; text-align: left; text-wrap: wrap; background-color: rgb(255, 255, 255);&quot;&gt;&lt;br&gt;&lt;/span&gt;&lt;/div&gt;&lt;div&gt;&lt;span style=&quot;color: rgb(34, 34, 34); font-family: &amp;quot;Roboto Flex&amp;quot;; font-size: 16px; text-align: left; text-wrap: wrap; background-color: rgb(255, 255, 255);&quot;&gt;address&amp;nbsp;&lt;/span&gt;&lt;span style=&quot;color: rgb(34, 34, 34); font-family: &amp;quot;Roboto Flex&amp;quot;; font-size: 16px; text-align: left; text-wrap: wrap; background-color: rgb(255, 255, 255);&quot;&gt;&lt;br&gt;&lt;/span&gt;&lt;/div&gt;&lt;div&gt;&lt;span style=&quot;color: rgb(34, 34, 34); font-family: &amp;quot;Roboto Flex&amp;quot;; font-size: 16px; text-align: left; text-wrap: wrap; background-color: rgb(255, 255, 255);&quot;&gt;&lt;br&gt;&lt;/span&gt;&lt;/div&gt;&lt;div&gt;&lt;span style=&quot;color: rgb(34, 34, 34); font-family: &amp;quot;Roboto Flex&amp;quot;; font-size: 16px; text-align: left; text-wrap: wrap; background-color: rgb(255, 255, 255);&quot;&gt;phone&amp;nbsp;&lt;/span&gt;&lt;span style=&quot;color: rgb(34, 34, 34); font-family: &amp;quot;Roboto Flex&amp;quot;; font-size: 16px; text-align: left; text-wrap: wrap; background-color: rgb(255, 255, 255);&quot;&gt;&lt;br&gt;&lt;/span&gt;&lt;/div&gt;&lt;span style=&quot;color: rgb(34, 34, 34); font-family: &amp;quot;Roboto Flex&amp;quot;; font-size: 16px; text-align: left; text-wrap: wrap; background-color: rgb(255, 255, 255);&quot;&gt;&lt;div&gt;&lt;span style=&quot;color: rgb(34, 34, 34); font-family: &amp;quot;Roboto Flex&amp;quot;; font-size: 16px; text-align: left; text-wrap: wrap; background-color: rgb(255, 255, 255);&quot;&gt;&lt;br&gt;&lt;/span&gt;&lt;/div&gt;dateOfBirth&lt;/span&gt;&lt;div&gt;&lt;br&gt;&lt;/div&gt;&lt;div&gt;&lt;span style=&quot;color: rgb(34, 34, 34); font-family: &amp;quot;Roboto Flex&amp;quot;; font-size: 16px; text-align: left; text-wrap: wrap; background-color: rgb(255, 255, 255);&quot;&gt;status&amp;nbsp;&lt;/span&gt;&lt;br&gt;&lt;/div&gt;" style="text;html=1;align=center;verticalAlign=middle;resizable=0;points=[];autosize=1;strokeColor=none;fillColor=none;fontFamily=Helvetica;fontSize=12;fontColor=default;rounded=0;" vertex="1" parent="pMV6OHs9eJrk2TMWCFJE-17">
          <mxGeometry y="26" width="160" height="220" as="geometry" />
        </mxCell>
        <mxCell id="pMV6OHs9eJrk2TMWCFJE-22" value="identity " style="swimlane;fontStyle=0;childLayout=stackLayout;horizontal=1;startSize=26;horizontalStack=0;resizeParent=1;resizeParentMax=0;resizeLast=0;collapsible=1;marginBottom=0;align=center;fontSize=14;verticalAlign=middle;spacingLeft=4;spacingRight=4;fontFamily=Helvetica;fontColor=default;fillColor=none;gradientColor=none;rounded=0;" vertex="1" parent="1">
          <mxGeometry x="320" y="320" width="160" height="160" as="geometry" />
        </mxCell>
        <mxCell id="pMV6OHs9eJrk2TMWCFJE-23" value="id&lt;div&gt;&lt;br&gt;&lt;/div&gt;&lt;div&gt;number&lt;/div&gt;&lt;div&gt;&lt;br&gt;&lt;/div&gt;&lt;div&gt;&lt;span style=&quot;color: rgb(34, 34, 34); font-family: &amp;quot;Roboto Flex&amp;quot;; font-size: 16px; background-color: rgb(255, 255, 255);&quot;&gt;createdDate&amp;nbsp;&lt;/span&gt;&lt;br&gt;&lt;/div&gt;&lt;div&gt;&lt;span style=&quot;color: rgb(34, 34, 34); font-family: &amp;quot;Roboto Flex&amp;quot;; font-size: 16px; background-color: rgb(255, 255, 255);&quot;&gt;&lt;br&gt;&lt;/span&gt;&lt;/div&gt;&lt;div&gt;&lt;span style=&quot;color: rgb(34, 34, 34); font-family: &amp;quot;Roboto Flex&amp;quot;; font-size: 16px; background-color: rgb(255, 255, 255);&quot;&gt;user_id&lt;/span&gt;&lt;/div&gt;" style="text;strokeColor=none;fillColor=none;spacingLeft=4;spacingRight=4;overflow=hidden;rotatable=0;points=[[0,0.5],[1,0.5]];portConstraint=eastwest;fontSize=12;whiteSpace=wrap;html=1;fontFamily=Helvetica;fontColor=default;rounded=0;" vertex="1" parent="pMV6OHs9eJrk2TMWCFJE-22">
          <mxGeometry y="26" width="160" height="134" as="geometry" />
        </mxCell>
        <mxCell id="pMV6OHs9eJrk2TMWCFJE-27" value="" style="edgeStyle=entityRelationEdgeStyle;fontSize=12;html=1;endArrow=ERmandOne;startArrow=ERmandOne;rounded=0;fontFamily=Helvetica;fontColor=default;exitX=1.008;exitY=0.083;exitDx=0;exitDy=0;exitPerimeter=0;entryX=-0.004;entryY=0.848;entryDx=0;entryDy=0;entryPerimeter=0;" edge="1" parent="1" source="pMV6OHs9eJrk2TMWCFJE-21" target="pMV6OHs9eJrk2TMWCFJE-23">
          <mxGeometry width="100" height="100" relative="1" as="geometry">
            <mxPoint x="370" y="390" as="sourcePoint" />
            <mxPoint x="500" y="320" as="targetPoint" />
            <Array as="points">
              <mxPoint x="360" y="360" />
            </Array>
          </mxGeometry>
        </mxCell>
        <mxCell id="pMV6OHs9eJrk2TMWCFJE-28" value="Users " style="swimlane;fontStyle=0;childLayout=stackLayout;horizontal=1;startSize=26;horizontalStack=0;resizeParent=1;resizeParentMax=0;resizeLast=0;collapsible=1;marginBottom=0;align=center;fontSize=14;verticalAlign=middle;spacingLeft=4;spacingRight=4;fontFamily=Helvetica;fontColor=default;fillColor=none;gradientColor=none;rounded=0;" vertex="1" parent="1">
          <mxGeometry x="40" y="680" width="160" height="240" as="geometry" />
        </mxCell>
        <mxCell id="pMV6OHs9eJrk2TMWCFJE-29" value="id&lt;div&gt;&lt;br&gt;&lt;/div&gt;&lt;div&gt;&lt;span style=&quot;color: rgb(34, 34, 34); font-family: &amp;quot;Roboto Flex&amp;quot;; font-size: 16px; background-color: rgb(255, 255, 255);&quot;&gt;name&amp;nbsp;&lt;/span&gt;&lt;br&gt;&lt;/div&gt;&lt;div&gt;&lt;span style=&quot;color: rgb(34, 34, 34); font-family: &amp;quot;Roboto Flex&amp;quot;; font-size: 16px; background-color: rgb(255, 255, 255);&quot;&gt;&lt;br&gt;&lt;/span&gt;&lt;/div&gt;&lt;div&gt;&lt;span style=&quot;color: rgb(34, 34, 34); font-family: &amp;quot;Roboto Flex&amp;quot;; font-size: 16px; background-color: rgb(255, 255, 255);&quot;&gt;address&amp;nbsp;&lt;/span&gt;&lt;span style=&quot;color: rgb(34, 34, 34); font-family: &amp;quot;Roboto Flex&amp;quot;; font-size: 16px; background-color: rgb(255, 255, 255);&quot;&gt;&lt;br&gt;&lt;/span&gt;&lt;/div&gt;&lt;div&gt;&lt;span style=&quot;color: rgb(34, 34, 34); font-family: &amp;quot;Roboto Flex&amp;quot;; font-size: 16px; background-color: rgb(255, 255, 255);&quot;&gt;&lt;br&gt;&lt;/span&gt;&lt;/div&gt;&lt;div&gt;&lt;span style=&quot;color: rgb(34, 34, 34); font-family: &amp;quot;Roboto Flex&amp;quot;; font-size: 16px; background-color: rgb(255, 255, 255);&quot;&gt;phone&amp;nbsp;&lt;/span&gt;&lt;span style=&quot;color: rgb(34, 34, 34); font-family: &amp;quot;Roboto Flex&amp;quot;; font-size: 16px; background-color: rgb(255, 255, 255);&quot;&gt;&lt;br&gt;&lt;/span&gt;&lt;/div&gt;&lt;div&gt;&lt;span style=&quot;color: rgb(34, 34, 34); font-family: &amp;quot;Roboto Flex&amp;quot;; font-size: 16px; background-color: rgb(255, 255, 255);&quot;&gt;&lt;br&gt;&lt;/span&gt;&lt;/div&gt;&lt;div&gt;&lt;span style=&quot;color: rgb(34, 34, 34); font-family: &amp;quot;Roboto Flex&amp;quot;; font-size: 16px; background-color: rgb(255, 255, 255);&quot;&gt;dateOfBirth&amp;nbsp;&lt;/span&gt;&lt;span style=&quot;color: rgb(34, 34, 34); font-family: &amp;quot;Roboto Flex&amp;quot;; font-size: 16px; background-color: rgb(255, 255, 255);&quot;&gt;&lt;br&gt;&lt;/span&gt;&lt;/div&gt;&lt;div&gt;&lt;span style=&quot;color: rgb(34, 34, 34); font-family: &amp;quot;Roboto Flex&amp;quot;; font-size: 16px; background-color: rgb(255, 255, 255);&quot;&gt;&lt;br&gt;&lt;/span&gt;&lt;/div&gt;&lt;div&gt;&lt;span style=&quot;color: rgb(34, 34, 34); font-family: &amp;quot;Roboto Flex&amp;quot;; font-size: 16px; background-color: rgb(255, 255, 255);&quot;&gt;status&amp;nbsp;&lt;/span&gt;&lt;span style=&quot;color: rgb(34, 34, 34); font-family: &amp;quot;Roboto Flex&amp;quot;; font-size: 16px; background-color: rgb(255, 255, 255);&quot;&gt;&lt;br&gt;&lt;/span&gt;&lt;/div&gt;" style="text;strokeColor=none;fillColor=none;spacingLeft=4;spacingRight=4;overflow=hidden;rotatable=0;points=[[0,0.5],[1,0.5]];portConstraint=eastwest;fontSize=12;whiteSpace=wrap;html=1;fontFamily=Helvetica;fontColor=default;rounded=0;" vertex="1" parent="pMV6OHs9eJrk2TMWCFJE-28">
          <mxGeometry y="26" width="160" height="214" as="geometry" />
        </mxCell>
        <mxCell id="pMV6OHs9eJrk2TMWCFJE-32" value="Roles " style="swimlane;fontStyle=0;childLayout=stackLayout;horizontal=1;startSize=26;horizontalStack=0;resizeParent=1;resizeParentMax=0;resizeLast=0;collapsible=1;marginBottom=0;align=center;fontSize=14;verticalAlign=middle;spacingLeft=4;spacingRight=4;fontFamily=Helvetica;fontColor=default;fillColor=none;gradientColor=none;rounded=0;" vertex="1" parent="1">
          <mxGeometry x="530" y="680" width="160" height="80" as="geometry" />
        </mxCell>
        <mxCell id="pMV6OHs9eJrk2TMWCFJE-33" value="id&lt;div&gt;&lt;br&gt;&lt;/div&gt;&lt;div&gt;name&lt;/div&gt;" style="text;strokeColor=none;fillColor=none;spacingLeft=4;spacingRight=4;overflow=hidden;rotatable=0;points=[[0,0.5],[1,0.5]];portConstraint=eastwest;fontSize=12;whiteSpace=wrap;html=1;fontFamily=Helvetica;fontColor=default;rounded=0;" vertex="1" parent="pMV6OHs9eJrk2TMWCFJE-32">
          <mxGeometry y="26" width="160" height="54" as="geometry" />
        </mxCell>
        <mxCell id="pMV6OHs9eJrk2TMWCFJE-36" value="user_role" style="swimlane;fontStyle=0;childLayout=stackLayout;horizontal=1;startSize=26;horizontalStack=0;resizeParent=1;resizeParentMax=0;resizeLast=0;collapsible=1;marginBottom=0;align=center;fontSize=14;verticalAlign=middle;spacingLeft=4;spacingRight=4;fontFamily=Helvetica;fontColor=default;fillColor=none;gradientColor=none;rounded=0;" vertex="1" parent="1">
          <mxGeometry x="290" y="720" width="160" height="86" as="geometry" />
        </mxCell>
        <mxCell id="pMV6OHs9eJrk2TMWCFJE-37" value="user_id" style="text;strokeColor=none;fillColor=none;spacingLeft=4;spacingRight=4;overflow=hidden;rotatable=0;points=[[0,0.5],[1,0.5]];portConstraint=eastwest;fontSize=12;whiteSpace=wrap;html=1;fontFamily=Helvetica;fontColor=default;rounded=0;" vertex="1" parent="pMV6OHs9eJrk2TMWCFJE-36">
          <mxGeometry y="26" width="160" height="30" as="geometry" />
        </mxCell>
        <mxCell id="pMV6OHs9eJrk2TMWCFJE-39" value="role_id" style="text;strokeColor=none;fillColor=none;spacingLeft=4;spacingRight=4;overflow=hidden;rotatable=0;points=[[0,0.5],[1,0.5]];portConstraint=eastwest;fontSize=12;whiteSpace=wrap;html=1;fontFamily=Helvetica;fontColor=default;rounded=0;" vertex="1" parent="pMV6OHs9eJrk2TMWCFJE-36">
          <mxGeometry y="56" width="160" height="30" as="geometry" />
        </mxCell>
        <mxCell id="pMV6OHs9eJrk2TMWCFJE-41" value="" style="edgeStyle=entityRelationEdgeStyle;fontSize=12;html=1;endArrow=ERzeroToMany;startArrow=ERmandOne;rounded=0;fontFamily=Helvetica;fontColor=default;entryX=0;entryY=0.5;entryDx=0;entryDy=0;exitX=1;exitY=0.064;exitDx=0;exitDy=0;exitPerimeter=0;" edge="1" parent="1" source="pMV6OHs9eJrk2TMWCFJE-29" target="pMV6OHs9eJrk2TMWCFJE-37">
          <mxGeometry width="100" height="100" relative="1" as="geometry">
            <mxPoint x="250" y="700" as="sourcePoint" />
            <mxPoint x="350" y="720" as="targetPoint" />
          </mxGeometry>
        </mxCell>
        <mxCell id="pMV6OHs9eJrk2TMWCFJE-42" value="" style="edgeStyle=entityRelationEdgeStyle;fontSize=12;html=1;endArrow=ERzeroToMany;startArrow=ERmandOne;rounded=0;fontFamily=Helvetica;fontColor=default;entryX=1;entryY=0.75;entryDx=0;entryDy=0;exitX=-0.004;exitY=0.29;exitDx=0;exitDy=0;exitPerimeter=0;" edge="1" parent="1" source="pMV6OHs9eJrk2TMWCFJE-33" target="pMV6OHs9eJrk2TMWCFJE-36">
          <mxGeometry width="100" height="100" relative="1" as="geometry">
            <mxPoint x="540" y="840" as="sourcePoint" />
            <mxPoint x="350" y="720" as="targetPoint" />
          </mxGeometry>
        </mxCell>
        <mxCell id="pMV6OHs9eJrk2TMWCFJE-43" value="account" style="swimlane;fontStyle=0;childLayout=stackLayout;horizontal=1;startSize=26;horizontalStack=0;resizeParent=1;resizeParentMax=0;resizeLast=0;collapsible=1;marginBottom=0;align=center;fontSize=14;verticalAlign=middle;spacingLeft=4;spacingRight=4;fontFamily=Helvetica;fontColor=default;fillColor=none;gradientColor=none;rounded=0;" vertex="1" parent="1">
          <mxGeometry x="40" y="1040" width="190" height="350" as="geometry" />
        </mxCell>
        <mxCell id="pMV6OHs9eJrk2TMWCFJE-44" value="id : int&lt;div&gt;&lt;br&gt;&lt;/div&gt;" style="text;strokeColor=none;fillColor=none;spacingLeft=4;spacingRight=4;overflow=hidden;rotatable=0;points=[[0,0.5],[1,0.5]];portConstraint=eastwest;fontSize=12;whiteSpace=wrap;html=1;fontFamily=Helvetica;fontColor=default;rounded=0;" vertex="1" parent="pMV6OHs9eJrk2TMWCFJE-43">
          <mxGeometry y="26" width="190" height="30" as="geometry" />
        </mxCell>
        <mxCell id="pMV6OHs9eJrk2TMWCFJE-45" value="&lt;span style=&quot;color: rgb(34, 34, 34); font-family: &amp;quot;Roboto Flex&amp;quot;; font-size: 16px; background-color: rgb(255, 255, 255);&quot;&gt;firstName :&amp;nbsp;&lt;/span&gt;&lt;span style=&quot;color: rgb(34, 34, 34); font-family: &amp;quot;Roboto Flex&amp;quot;; font-size: 16px; background-color: rgb(255, 255, 255);&quot;&gt;varchar(100)&lt;/span&gt;" style="text;strokeColor=none;fillColor=none;spacingLeft=4;spacingRight=4;overflow=hidden;rotatable=0;points=[[0,0.5],[1,0.5]];portConstraint=eastwest;fontSize=12;whiteSpace=wrap;html=1;fontFamily=Helvetica;fontColor=default;rounded=0;" vertex="1" parent="pMV6OHs9eJrk2TMWCFJE-43">
          <mxGeometry y="56" width="190" height="30" as="geometry" />
        </mxCell>
        <mxCell id="pMV6OHs9eJrk2TMWCFJE-46" value="&lt;span style=&quot;color: rgb(34, 34, 34); font-family: &amp;quot;Roboto Flex&amp;quot;; font-size: 16px; background-color: rgb(255, 255, 255);&quot;&gt;lastName : varchar(100)&lt;/span&gt;&lt;div&gt;&lt;span style=&quot;color: rgb(34, 34, 34); font-family: &amp;quot;Roboto Flex&amp;quot;; font-size: 16px; background-color: rgb(255, 255, 255);&quot;&gt;&lt;br&gt;&lt;/span&gt;&lt;/div&gt;&lt;div&gt;&lt;span style=&quot;color: rgb(34, 34, 34); font-family: &amp;quot;Roboto Flex&amp;quot;; font-size: 16px; background-color: rgb(255, 255, 255);&quot;&gt;email : varchar(255)&lt;/span&gt;&lt;span style=&quot;color: rgb(34, 34, 34); font-family: &amp;quot;Roboto Flex&amp;quot;; font-size: 16px; background-color: rgb(255, 255, 255);&quot;&gt;&lt;br&gt;&lt;/span&gt;&lt;/div&gt;&lt;div&gt;&lt;span style=&quot;color: rgb(34, 34, 34); font-family: &amp;quot;Roboto Flex&amp;quot;; font-size: 16px; background-color: rgb(255, 255, 255);&quot;&gt;&lt;br&gt;&lt;/span&gt;&lt;/div&gt;&lt;div&gt;&lt;span style=&quot;color: rgb(34, 34, 34); font-family: &amp;quot;Roboto Flex&amp;quot;; font-size: 16px; background-color: rgb(255, 255, 255);&quot;&gt;password : varchar(255)&lt;/span&gt;&lt;span style=&quot;color: rgb(34, 34, 34); font-family: &amp;quot;Roboto Flex&amp;quot;; font-size: 16px; background-color: rgb(255, 255, 255);&quot;&gt;&lt;br&gt;&lt;/span&gt;&lt;/div&gt;&lt;div&gt;&lt;span style=&quot;color: rgb(34, 34, 34); font-family: &amp;quot;Roboto Flex&amp;quot;; font-size: 16px; background-color: rgb(255, 255, 255);&quot;&gt;&lt;br&gt;&lt;/span&gt;&lt;/div&gt;&lt;div&gt;&lt;span style=&quot;color: rgb(34, 34, 34); font-family: &amp;quot;Roboto Flex&amp;quot;; font-size: 16px; background-color: rgb(255, 255, 255);&quot;&gt;address : varchar(255)&lt;/span&gt;&lt;span style=&quot;color: rgb(34, 34, 34); font-family: &amp;quot;Roboto Flex&amp;quot;; font-size: 16px; background-color: rgb(255, 255, 255);&quot;&gt;&lt;br&gt;&lt;/span&gt;&lt;/div&gt;&lt;div&gt;&lt;span style=&quot;color: rgb(34, 34, 34); font-family: &amp;quot;Roboto Flex&amp;quot;; font-size: 16px; background-color: rgb(255, 255, 255);&quot;&gt;&lt;br&gt;&lt;/span&gt;&lt;/div&gt;&lt;div&gt;&lt;span style=&quot;color: rgb(34, 34, 34); font-family: &amp;quot;Roboto Flex&amp;quot;; font-size: 16px; background-color: rgb(255, 255, 255);&quot;&gt;phone : varchar(11)&lt;/span&gt;&lt;span style=&quot;color: rgb(34, 34, 34); font-family: &amp;quot;Roboto Flex&amp;quot;; font-size: 16px; background-color: rgb(255, 255, 255);&quot;&gt;&lt;br&gt;&lt;/span&gt;&lt;/div&gt;&lt;div&gt;&lt;span style=&quot;color: rgb(34, 34, 34); font-family: &amp;quot;Roboto Flex&amp;quot;; font-size: 16px; background-color: rgb(255, 255, 255);&quot;&gt;&lt;br&gt;&lt;/span&gt;&lt;/div&gt;&lt;div&gt;&lt;span style=&quot;color: rgb(34, 34, 34); font-family: &amp;quot;Roboto Flex&amp;quot;; font-size: 16px; background-color: rgb(255, 255, 255);&quot;&gt;dateOfBirth : date&lt;/span&gt;&lt;span style=&quot;color: rgb(34, 34, 34); font-family: &amp;quot;Roboto Flex&amp;quot;; font-size: 16px; background-color: rgb(255, 255, 255);&quot;&gt;&lt;br&gt;&lt;/span&gt;&lt;/div&gt;&lt;div&gt;&lt;span style=&quot;color: rgb(34, 34, 34); font-family: &amp;quot;Roboto Flex&amp;quot;; font-size: 16px; background-color: rgb(255, 255, 255);&quot;&gt;&lt;br&gt;&lt;/span&gt;&lt;/div&gt;&lt;div&gt;&lt;span style=&quot;color: rgb(34, 34, 34); font-family: &amp;quot;Roboto Flex&amp;quot;; font-size: 16px; background-color: rgb(255, 255, 255);&quot;&gt;status : bit&lt;/span&gt;&lt;span style=&quot;color: rgb(34, 34, 34); font-family: &amp;quot;Roboto Flex&amp;quot;; font-size: 16px; background-color: rgb(255, 255, 255);&quot;&gt;&lt;br&gt;&lt;/span&gt;&lt;/div&gt;&lt;div&gt;&lt;span style=&quot;color: rgb(34, 34, 34); font-family: &amp;quot;Roboto Flex&amp;quot;; font-size: 16px; background-color: rgb(255, 255, 255);&quot;&gt;&lt;br&gt;&lt;/span&gt;&lt;/div&gt;&lt;div&gt;&lt;span style=&quot;color: rgb(34, 34, 34); font-family: &amp;quot;Roboto Flex&amp;quot;; font-size: 16px; background-color: rgb(255, 255, 255);&quot;&gt;&lt;br&gt;&lt;/span&gt;&lt;/div&gt;" style="text;strokeColor=none;fillColor=none;spacingLeft=4;spacingRight=4;overflow=hidden;rotatable=0;points=[[0,0.5],[1,0.5]];portConstraint=eastwest;fontSize=12;whiteSpace=wrap;html=1;fontFamily=Helvetica;fontColor=default;rounded=0;" vertex="1" parent="pMV6OHs9eJrk2TMWCFJE-43">
          <mxGeometry y="86" width="190" height="264" as="geometry" />
        </mxCell>
        <mxCell id="pMV6OHs9eJrk2TMWCFJE-47" value="categories" style="swimlane;fontStyle=0;childLayout=stackLayout;horizontal=1;startSize=26;horizontalStack=0;resizeParent=1;resizeParentMax=0;resizeLast=0;collapsible=1;marginBottom=0;align=center;fontSize=14;verticalAlign=middle;spacingLeft=4;spacingRight=4;fontFamily=Helvetica;fontColor=default;fillColor=none;gradientColor=none;rounded=0;" vertex="1" parent="1">
          <mxGeometry x="40" y="1520" width="160" height="120" as="geometry" />
        </mxCell>
        <mxCell id="pMV6OHs9eJrk2TMWCFJE-48" value="id : int&lt;div&gt;&lt;br&gt;&lt;/div&gt;&lt;div&gt;&lt;span style=&quot;color: rgb(34, 34, 34); font-family: &amp;quot;Roboto Flex&amp;quot;; font-size: 16px; background-color: rgb(255, 255, 255);&quot;&gt;name : varchar(100)&lt;/span&gt;&lt;br&gt;&lt;/div&gt;&lt;div&gt;&lt;span style=&quot;color: rgb(34, 34, 34); font-family: &amp;quot;Roboto Flex&amp;quot;; font-size: 16px; background-color: rgb(255, 255, 255);&quot;&gt;&lt;br&gt;&lt;/span&gt;&lt;/div&gt;&lt;div&gt;&lt;span style=&quot;color: rgb(34, 34, 34); font-family: &amp;quot;Roboto Flex&amp;quot;; font-size: 16px; background-color: rgb(255, 255, 255);&quot;&gt;status : bit&lt;/span&gt;&lt;span style=&quot;color: rgb(34, 34, 34); font-family: &amp;quot;Roboto Flex&amp;quot;; font-size: 16px; background-color: rgb(255, 255, 255);&quot;&gt;&lt;br&gt;&lt;/span&gt;&lt;/div&gt;&lt;div&gt;&lt;span style=&quot;color: rgb(34, 34, 34); font-family: &amp;quot;Roboto Flex&amp;quot;; font-size: 16px; background-color: rgb(255, 255, 255);&quot;&gt;&lt;br&gt;&lt;/span&gt;&lt;/div&gt;&lt;div&gt;&lt;span style=&quot;color: rgb(34, 34, 34); font-family: &amp;quot;Roboto Flex&amp;quot;; font-size: 16px; background-color: rgb(255, 255, 255);&quot;&gt;&lt;br&gt;&lt;/span&gt;&lt;/div&gt;" style="text;strokeColor=none;fillColor=none;spacingLeft=4;spacingRight=4;overflow=hidden;rotatable=0;points=[[0,0.5],[1,0.5]];portConstraint=eastwest;fontSize=12;whiteSpace=wrap;html=1;fontFamily=Helvetica;fontColor=default;rounded=0;" vertex="1" parent="pMV6OHs9eJrk2TMWCFJE-47">
          <mxGeometry y="26" width="160" height="94" as="geometry" />
        </mxCell>
        <mxCell id="pMV6OHs9eJrk2TMWCFJE-51" value="products" style="swimlane;fontStyle=0;childLayout=stackLayout;horizontal=1;startSize=26;horizontalStack=0;resizeParent=1;resizeParentMax=0;resizeLast=0;collapsible=1;marginBottom=0;align=center;fontSize=14;verticalAlign=middle;spacingLeft=4;spacingRight=4;fontFamily=Helvetica;fontColor=default;fillColor=none;gradientColor=none;rounded=0;" vertex="1" parent="1">
          <mxGeometry x="360" y="1520" width="160" height="240" as="geometry" />
        </mxCell>
        <mxCell id="pMV6OHs9eJrk2TMWCFJE-52" value="id : int&amp;nbsp;&lt;div&gt;&lt;br&gt;&lt;/div&gt;&lt;div&gt;&lt;span style=&quot;color: rgb(34, 34, 34); font-family: &amp;quot;Roboto Flex&amp;quot;; font-size: 16px; background-color: rgb(255, 255, 255);&quot;&gt;name : varchar(100)&lt;/span&gt;&lt;br&gt;&lt;/div&gt;&lt;div&gt;&lt;span style=&quot;color: rgb(34, 34, 34); font-family: &amp;quot;Roboto Flex&amp;quot;; font-size: 16px; background-color: rgb(255, 255, 255);&quot;&gt;&lt;br&gt;&lt;/span&gt;&lt;/div&gt;&lt;div&gt;&lt;span style=&quot;color: rgb(34, 34, 34); font-family: &amp;quot;Roboto Flex&amp;quot;; font-size: 16px; background-color: rgb(255, 255, 255);&quot;&gt;price : double&lt;/span&gt;&lt;span style=&quot;color: rgb(34, 34, 34); font-family: &amp;quot;Roboto Flex&amp;quot;; font-size: 16px; background-color: rgb(255, 255, 255);&quot;&gt;&lt;br&gt;&lt;/span&gt;&lt;/div&gt;&lt;div&gt;&lt;span style=&quot;color: rgb(34, 34, 34); font-family: &amp;quot;Roboto Flex&amp;quot;; font-size: 16px; background-color: rgb(255, 255, 255);&quot;&gt;&lt;br&gt;&lt;/span&gt;&lt;/div&gt;&lt;div&gt;&lt;span style=&quot;color: rgb(34, 34, 34); font-family: &amp;quot;Roboto Flex&amp;quot;; font-size: 16px; background-color: rgb(255, 255, 255);&quot;&gt;stock : int&lt;/span&gt;&lt;/div&gt;&lt;div&gt;&lt;span style=&quot;color: rgb(34, 34, 34); font-family: &amp;quot;Roboto Flex&amp;quot;; font-size: 16px; background-color: rgb(255, 255, 255);&quot;&gt;&lt;br&gt;&lt;/span&gt;&lt;/div&gt;&lt;div&gt;&lt;span style=&quot;background-color: rgb(255, 255, 255); color: rgb(34, 34, 34); font-family: &amp;quot;Roboto Flex&amp;quot;; font-size: 16px;&quot;&gt;category_id : int&lt;/span&gt;&lt;/div&gt;&lt;div&gt;&lt;span style=&quot;background-color: rgb(255, 255, 255); color: rgb(34, 34, 34); font-family: &amp;quot;Roboto Flex&amp;quot;; font-size: 16px;&quot;&gt;&lt;br&gt;&lt;/span&gt;&lt;/div&gt;&lt;div&gt;&lt;span style=&quot;background-color: rgb(255, 255, 255); color: rgb(34, 34, 34); font-family: &amp;quot;Roboto Flex&amp;quot;; font-size: 16px;&quot;&gt;status : bit&lt;/span&gt;&lt;span style=&quot;background-color: rgb(255, 255, 255); color: rgb(34, 34, 34); font-family: &amp;quot;Roboto Flex&amp;quot;; font-size: 16px;&quot;&gt;&amp;nbsp;&lt;/span&gt;&lt;/div&gt;&lt;div&gt;&lt;span style=&quot;color: rgb(34, 34, 34); font-family: &amp;quot;Roboto Flex&amp;quot;; font-size: 16px; background-color: rgb(255, 255, 255);&quot;&gt;&lt;br&gt;&lt;/span&gt;&lt;/div&gt;&lt;div&gt;&lt;span style=&quot;color: rgb(34, 34, 34); font-family: &amp;quot;Roboto Flex&amp;quot;; font-size: 16px; background-color: rgb(255, 255, 255);&quot;&gt;&amp;nbsp;&lt;/span&gt;&lt;span style=&quot;color: rgb(34, 34, 34); font-family: &amp;quot;Roboto Flex&amp;quot;; font-size: 16px; background-color: rgb(255, 255, 255);&quot;&gt;&lt;br&gt;&lt;/span&gt;&lt;/div&gt;" style="text;strokeColor=none;fillColor=none;spacingLeft=4;spacingRight=4;overflow=hidden;rotatable=0;points=[[0,0.5],[1,0.5]];portConstraint=eastwest;fontSize=12;whiteSpace=wrap;html=1;fontFamily=Helvetica;fontColor=default;rounded=0;" vertex="1" parent="pMV6OHs9eJrk2TMWCFJE-51">
          <mxGeometry y="26" width="160" height="214" as="geometry" />
        </mxCell>
        <mxCell id="pMV6OHs9eJrk2TMWCFJE-56" value="" style="edgeStyle=entityRelationEdgeStyle;fontSize=12;html=1;endArrow=ERzeroToMany;startArrow=ERmandOne;rounded=0;fontFamily=Helvetica;fontColor=default;entryX=0;entryY=0.5;entryDx=0;entryDy=0;" edge="1" parent="1" target="pMV6OHs9eJrk2TMWCFJE-52">
          <mxGeometry width="100" height="100" relative="1" as="geometry">
            <mxPoint x="200" y="1560" as="sourcePoint" />
            <mxPoint x="380" y="1550" as="targetPoint" />
          </mxGeometry>
        </mxCell>
        <mxCell id="pMV6OHs9eJrk2TMWCFJE-57" value="&lt;font style=&quot;font-size: 18px;&quot;&gt;bai tap 2:&lt;/font&gt;" style="text;strokeColor=none;fillColor=none;spacingLeft=4;spacingRight=4;overflow=hidden;rotatable=0;points=[[0,0.5],[1,0.5]];portConstraint=eastwest;fontSize=12;whiteSpace=wrap;html=1;fontFamily=Helvetica;fontColor=default;rounded=0;" vertex="1" parent="1">
          <mxGeometry x="30" y="1450" width="120" height="30" as="geometry" />
        </mxCell>
        <mxCell id="pMV6OHs9eJrk2TMWCFJE-58" value="&lt;font style=&quot;font-size: 18px;&quot;&gt;bai tap 1:&lt;/font&gt;" style="text;strokeColor=none;fillColor=none;spacingLeft=4;spacingRight=4;overflow=hidden;rotatable=0;points=[[0,0.5],[1,0.5]];portConstraint=eastwest;fontSize=12;whiteSpace=wrap;html=1;fontFamily=Helvetica;fontColor=default;rounded=0;" vertex="1" parent="1">
          <mxGeometry x="40" y="970" width="190" height="30" as="geometry" />
        </mxCell>
        <mxCell id="pMV6OHs9eJrk2TMWCFJE-59" value="&lt;font style=&quot;font-size: 18px;&quot;&gt;bai tap 3:&lt;/font&gt;" style="text;strokeColor=none;fillColor=none;spacingLeft=4;spacingRight=4;overflow=hidden;rotatable=0;points=[[0,0.5],[1,0.5]];portConstraint=eastwest;fontSize=12;whiteSpace=wrap;html=1;fontFamily=Helvetica;fontColor=default;rounded=0;" vertex="1" parent="1">
          <mxGeometry x="40" y="1810" width="120" height="30" as="geometry" />
        </mxCell>
        <mxCell id="pMV6OHs9eJrk2TMWCFJE-60" value="department" style="swimlane;fontStyle=0;childLayout=stackLayout;horizontal=1;startSize=26;horizontalStack=0;resizeParent=1;resizeParentMax=0;resizeLast=0;collapsible=1;marginBottom=0;align=center;fontSize=14;verticalAlign=middle;spacingLeft=4;spacingRight=4;fontFamily=Helvetica;fontColor=default;fillColor=none;gradientColor=none;rounded=0;" vertex="1" parent="1">
          <mxGeometry x="40" y="1880" width="160" height="130" as="geometry" />
        </mxCell>
        <mxCell id="pMV6OHs9eJrk2TMWCFJE-61" value="id :&amp;nbsp;&lt;span style=&quot;color: rgb(34, 34, 34); font-family: &amp;quot;Roboto Flex&amp;quot;; font-size: 16px; background-color: rgb(255, 255, 255);&quot;&gt;int&amp;nbsp;&lt;/span&gt;&lt;div&gt;&lt;span style=&quot;color: rgb(34, 34, 34); font-family: &amp;quot;Roboto Flex&amp;quot;; font-size: 16px; background-color: rgb(255, 255, 255);&quot;&gt;&lt;br&gt;&lt;/span&gt;&lt;/div&gt;&lt;div&gt;&lt;span style=&quot;color: rgb(34, 34, 34); font-family: &amp;quot;Roboto Flex&amp;quot;; font-size: 16px; background-color: rgb(255, 255, 255);&quot;&gt;name : varchar(255)&lt;/span&gt;&lt;span style=&quot;color: rgb(34, 34, 34); font-family: &amp;quot;Roboto Flex&amp;quot;; font-size: 16px; background-color: rgb(255, 255, 255);&quot;&gt;&lt;br&gt;&lt;/span&gt;&lt;/div&gt;&lt;div&gt;&lt;span style=&quot;color: rgb(34, 34, 34); font-family: &amp;quot;Roboto Flex&amp;quot;; font-size: 16px; background-color: rgb(255, 255, 255);&quot;&gt;&lt;br&gt;&lt;/span&gt;&lt;/div&gt;&lt;div&gt;&lt;span style=&quot;color: rgb(34, 34, 34); font-family: &amp;quot;Roboto Flex&amp;quot;; font-size: 16px; background-color: rgb(255, 255, 255);&quot;&gt;status : bit&lt;/span&gt;&lt;span style=&quot;color: rgb(34, 34, 34); font-family: &amp;quot;Roboto Flex&amp;quot;; font-size: 16px; background-color: rgb(255, 255, 255);&quot;&gt;&lt;br&gt;&lt;/span&gt;&lt;/div&gt;" style="text;strokeColor=none;fillColor=none;spacingLeft=4;spacingRight=4;overflow=hidden;rotatable=0;points=[[0,0.5],[1,0.5]];portConstraint=eastwest;fontSize=12;whiteSpace=wrap;html=1;fontFamily=Helvetica;fontColor=default;rounded=0;" vertex="1" parent="pMV6OHs9eJrk2TMWCFJE-60">
          <mxGeometry y="26" width="160" height="104" as="geometry" />
        </mxCell>
        <mxCell id="pMV6OHs9eJrk2TMWCFJE-64" value="employee" style="swimlane;fontStyle=0;childLayout=stackLayout;horizontal=1;startSize=26;horizontalStack=0;resizeParent=1;resizeParentMax=0;resizeLast=0;collapsible=1;marginBottom=0;align=center;fontSize=14;verticalAlign=middle;spacingLeft=4;spacingRight=4;fontFamily=Helvetica;fontColor=default;fillColor=none;gradientColor=none;rounded=0;" vertex="1" parent="1">
          <mxGeometry x="360" y="1880" width="160" height="320" as="geometry" />
        </mxCell>
        <mxCell id="pMV6OHs9eJrk2TMWCFJE-65" value="id : int&lt;div&gt;&lt;br&gt;&lt;/div&gt;&lt;div&gt;&lt;span style=&quot;color: rgb(34, 34, 34); font-family: &amp;quot;Roboto Flex&amp;quot;; font-size: 16px; background-color: rgb(255, 255, 255);&quot;&gt;name : varchar(255)&lt;/span&gt;&lt;br&gt;&lt;/div&gt;&lt;div&gt;&lt;span style=&quot;color: rgb(34, 34, 34); font-family: &amp;quot;Roboto Flex&amp;quot;; font-size: 16px; background-color: rgb(255, 255, 255);&quot;&gt;&lt;br&gt;&lt;/span&gt;&lt;/div&gt;&lt;div&gt;&lt;span style=&quot;color: rgb(34, 34, 34); font-family: &amp;quot;Roboto Flex&amp;quot;; font-size: 16px; background-color: rgb(255, 255, 255);&quot;&gt;sex : bit&lt;/span&gt;&lt;span style=&quot;color: rgb(34, 34, 34); font-family: &amp;quot;Roboto Flex&amp;quot;; font-size: 16px; background-color: rgb(255, 255, 255);&quot;&gt;&lt;br&gt;&lt;/span&gt;&lt;/div&gt;&lt;div&gt;&lt;span style=&quot;color: rgb(34, 34, 34); font-family: &amp;quot;Roboto Flex&amp;quot;; font-size: 16px; background-color: rgb(255, 255, 255);&quot;&gt;&lt;br&gt;&lt;/span&gt;&lt;/div&gt;&lt;div&gt;&lt;span style=&quot;color: rgb(34, 34, 34); font-family: &amp;quot;Roboto Flex&amp;quot;; font-size: 16px; background-color: rgb(255, 255, 255);&quot;&gt;address : varchar(255)&lt;/span&gt;&lt;span style=&quot;color: rgb(34, 34, 34); font-family: &amp;quot;Roboto Flex&amp;quot;; font-size: 16px; background-color: rgb(255, 255, 255);&quot;&gt;&lt;br&gt;&lt;/span&gt;&lt;/div&gt;&lt;div&gt;&lt;span style=&quot;color: rgb(34, 34, 34); font-family: &amp;quot;Roboto Flex&amp;quot;; font-size: 16px; background-color: rgb(255, 255, 255);&quot;&gt;&lt;br&gt;&lt;/span&gt;&lt;/div&gt;&lt;div&gt;&lt;span style=&quot;color: rgb(34, 34, 34); font-family: &amp;quot;Roboto Flex&amp;quot;; font-size: 16px; background-color: rgb(255, 255, 255);&quot;&gt;phone : varchar(255)&lt;/span&gt;&lt;span style=&quot;color: rgb(34, 34, 34); font-family: &amp;quot;Roboto Flex&amp;quot;; font-size: 16px; background-color: rgb(255, 255, 255);&quot;&gt;&lt;br&gt;&lt;/span&gt;&lt;/div&gt;&lt;div&gt;&lt;span style=&quot;color: rgb(34, 34, 34); font-family: &amp;quot;Roboto Flex&amp;quot;; font-size: 16px; background-color: rgb(255, 255, 255);&quot;&gt;&lt;br&gt;&lt;/span&gt;&lt;/div&gt;&lt;div&gt;&lt;span style=&quot;color: rgb(34, 34, 34); font-family: &amp;quot;Roboto Flex&amp;quot;; font-size: 16px; background-color: rgb(255, 255, 255);&quot;&gt;dateOfBirth : Date&lt;/span&gt;&lt;span style=&quot;color: rgb(34, 34, 34); font-family: &amp;quot;Roboto Flex&amp;quot;; font-size: 16px; background-color: rgb(255, 255, 255);&quot;&gt;&lt;br&gt;&lt;/span&gt;&lt;/div&gt;&lt;div&gt;&lt;span style=&quot;color: rgb(34, 34, 34); font-family: &amp;quot;Roboto Flex&amp;quot;; font-size: 16px; background-color: rgb(255, 255, 255);&quot;&gt;&lt;br&gt;&lt;/span&gt;&lt;/div&gt;&lt;div&gt;&lt;span style=&quot;color: rgb(34, 34, 34); font-family: &amp;quot;Roboto Flex&amp;quot;; font-size: 16px; background-color: rgb(255, 255, 255);&quot;&gt;status : bit&lt;/span&gt;&lt;span style=&quot;color: rgb(34, 34, 34); font-family: &amp;quot;Roboto Flex&amp;quot;; font-size: 16px; background-color: rgb(255, 255, 255);&quot;&gt;&lt;br&gt;&lt;/span&gt;&lt;/div&gt;&lt;div&gt;&lt;span style=&quot;color: rgb(34, 34, 34); font-family: &amp;quot;Roboto Flex&amp;quot;; font-size: 16px; background-color: rgb(255, 255, 255);&quot;&gt;&lt;br&gt;&lt;/span&gt;&lt;/div&gt;&lt;div&gt;&lt;span style=&quot;color: rgb(34, 34, 34); font-family: &amp;quot;Roboto Flex&amp;quot;; font-size: 16px; background-color: rgb(255, 255, 255);&quot;&gt;department_id&amp;nbsp;&lt;/span&gt;&lt;span style=&quot;color: rgb(34, 34, 34); font-family: &amp;quot;Roboto Flex&amp;quot;; font-size: 16px; background-color: rgb(255, 255, 255);&quot;&gt;&lt;br&gt;&lt;/span&gt;&lt;/div&gt;" style="text;strokeColor=none;fillColor=none;spacingLeft=4;spacingRight=4;overflow=hidden;rotatable=0;points=[[0,0.5],[1,0.5]];portConstraint=eastwest;fontSize=12;whiteSpace=wrap;html=1;fontFamily=Helvetica;fontColor=default;rounded=0;" vertex="1" parent="pMV6OHs9eJrk2TMWCFJE-64">
          <mxGeometry y="26" width="160" height="294" as="geometry" />
        </mxCell>
        <mxCell id="pMV6OHs9eJrk2TMWCFJE-68" value="" style="edgeStyle=entityRelationEdgeStyle;fontSize=12;html=1;endArrow=ERzeroToMany;startArrow=ERmandOne;rounded=0;fontFamily=Helvetica;fontColor=default;exitX=1;exitY=0.151;exitDx=0;exitDy=0;exitPerimeter=0;entryX=0;entryY=0.5;entryDx=0;entryDy=0;" edge="1" parent="1" source="pMV6OHs9eJrk2TMWCFJE-61" target="pMV6OHs9eJrk2TMWCFJE-65">
          <mxGeometry width="100" height="100" relative="1" as="geometry">
            <mxPoint x="280" y="2080" as="sourcePoint" />
            <mxPoint x="380" y="1980" as="targetPoint" />
          </mxGeometry>
        </mxCell>
        <mxCell id="pMV6OHs9eJrk2TMWCFJE-69" value="&lt;font style=&quot;font-size: 18px;&quot;&gt;bai tap 4:&lt;/font&gt;" style="text;strokeColor=none;fillColor=none;spacingLeft=4;spacingRight=4;overflow=hidden;rotatable=0;points=[[0,0.5],[1,0.5]];portConstraint=eastwest;fontSize=12;whiteSpace=wrap;html=1;fontFamily=Helvetica;fontColor=default;rounded=0;" vertex="1" parent="1">
          <mxGeometry x="40" y="2250" width="120" height="30" as="geometry" />
        </mxCell>
        <mxCell id="pMV6OHs9eJrk2TMWCFJE-70" value="users" style="swimlane;fontStyle=0;childLayout=stackLayout;horizontal=1;startSize=26;horizontalStack=0;resizeParent=1;resizeParentMax=0;resizeLast=0;collapsible=1;marginBottom=0;align=center;fontSize=14;verticalAlign=middle;spacingLeft=4;spacingRight=4;fontFamily=Helvetica;fontColor=default;fillColor=none;gradientColor=none;rounded=0;" vertex="1" parent="1">
          <mxGeometry x="40" y="2320" width="160" height="240" as="geometry" />
        </mxCell>
        <mxCell id="pMV6OHs9eJrk2TMWCFJE-71" value="id : int&lt;div&gt;&lt;br&gt;&lt;/div&gt;&lt;div&gt;&lt;span style=&quot;color: rgb(34, 34, 34); font-family: &amp;quot;Roboto Flex&amp;quot;; font-size: 16px; background-color: rgb(255, 255, 255);&quot;&gt;name : varchar(100)&lt;/span&gt;&lt;br&gt;&lt;/div&gt;&lt;div&gt;&lt;span style=&quot;color: rgb(34, 34, 34); font-family: &amp;quot;Roboto Flex&amp;quot;; font-size: 16px; background-color: rgb(255, 255, 255);&quot;&gt;&lt;br&gt;&lt;/span&gt;&lt;/div&gt;&lt;div&gt;&lt;span style=&quot;color: rgb(34, 34, 34); font-family: &amp;quot;Roboto Flex&amp;quot;; font-size: 16px; background-color: rgb(255, 255, 255);&quot;&gt;address : varchar(255)&lt;/span&gt;&lt;span style=&quot;color: rgb(34, 34, 34); font-family: &amp;quot;Roboto Flex&amp;quot;; font-size: 16px; background-color: rgb(255, 255, 255);&quot;&gt;&lt;br&gt;&lt;/span&gt;&lt;/div&gt;&lt;div&gt;&lt;span style=&quot;color: rgb(34, 34, 34); font-family: &amp;quot;Roboto Flex&amp;quot;; font-size: 16px; background-color: rgb(255, 255, 255);&quot;&gt;&lt;br&gt;&lt;/span&gt;&lt;/div&gt;&lt;div&gt;&lt;span style=&quot;color: rgb(34, 34, 34); font-family: &amp;quot;Roboto Flex&amp;quot;; font-size: 16px; background-color: rgb(255, 255, 255);&quot;&gt;phone : varchar(11)&lt;/span&gt;&lt;span style=&quot;color: rgb(34, 34, 34); font-family: &amp;quot;Roboto Flex&amp;quot;; font-size: 16px; background-color: rgb(255, 255, 255);&quot;&gt;&lt;br&gt;&lt;/span&gt;&lt;/div&gt;&lt;div&gt;&lt;span style=&quot;color: rgb(34, 34, 34); font-family: &amp;quot;Roboto Flex&amp;quot;; font-size: 16px; background-color: rgb(255, 255, 255);&quot;&gt;&lt;br&gt;&lt;/span&gt;&lt;/div&gt;&lt;div&gt;&lt;span style=&quot;color: rgb(34, 34, 34); font-family: &amp;quot;Roboto Flex&amp;quot;; font-size: 16px; background-color: rgb(255, 255, 255);&quot;&gt;dateOfBirth : date&lt;/span&gt;&lt;span style=&quot;color: rgb(34, 34, 34); font-family: &amp;quot;Roboto Flex&amp;quot;; font-size: 16px; background-color: rgb(255, 255, 255);&quot;&gt;&lt;br&gt;&lt;/span&gt;&lt;/div&gt;&lt;div&gt;&lt;span style=&quot;color: rgb(34, 34, 34); font-family: &amp;quot;Roboto Flex&amp;quot;; font-size: 16px; background-color: rgb(255, 255, 255);&quot;&gt;&lt;br&gt;&lt;/span&gt;&lt;/div&gt;&lt;div&gt;&lt;span style=&quot;color: rgb(34, 34, 34); font-family: &amp;quot;Roboto Flex&amp;quot;; font-size: 16px; background-color: rgb(255, 255, 255);&quot;&gt;status : bit&lt;/span&gt;&lt;span style=&quot;color: rgb(34, 34, 34); font-family: &amp;quot;Roboto Flex&amp;quot;; font-size: 16px; background-color: rgb(255, 255, 255);&quot;&gt;&lt;br&gt;&lt;/span&gt;&lt;/div&gt;&lt;div&gt;&lt;span style=&quot;color: rgb(34, 34, 34); font-family: &amp;quot;Roboto Flex&amp;quot;; font-size: 16px; background-color: rgb(255, 255, 255);&quot;&gt;&lt;br&gt;&lt;/span&gt;&lt;/div&gt;&lt;div&gt;&lt;span style=&quot;color: rgb(34, 34, 34); font-family: &amp;quot;Roboto Flex&amp;quot;; font-size: 16px; background-color: rgb(255, 255, 255);&quot;&gt;&lt;br&gt;&lt;/span&gt;&lt;/div&gt;" style="text;strokeColor=none;fillColor=none;spacingLeft=4;spacingRight=4;overflow=hidden;rotatable=0;points=[[0,0.5],[1,0.5]];portConstraint=eastwest;fontSize=12;whiteSpace=wrap;html=1;fontFamily=Helvetica;fontColor=default;rounded=0;" vertex="1" parent="pMV6OHs9eJrk2TMWCFJE-70">
          <mxGeometry y="26" width="160" height="214" as="geometry" />
        </mxCell>
        <mxCell id="pMV6OHs9eJrk2TMWCFJE-74" value="users_product" style="swimlane;fontStyle=0;childLayout=stackLayout;horizontal=1;startSize=26;horizontalStack=0;resizeParent=1;resizeParentMax=0;resizeLast=0;collapsible=1;marginBottom=0;align=center;fontSize=14;verticalAlign=middle;spacingLeft=4;spacingRight=4;fontFamily=Helvetica;fontColor=default;fillColor=none;gradientColor=none;rounded=0;" vertex="1" parent="1">
          <mxGeometry x="300" y="2390" width="160" height="140" as="geometry" />
        </mxCell>
        <mxCell id="pMV6OHs9eJrk2TMWCFJE-75" value="&lt;div&gt;id : int&lt;/div&gt;&lt;div&gt;&lt;br&gt;&lt;/div&gt;user_id : int&lt;div&gt;&lt;br&gt;&lt;div&gt;product_id : int&lt;/div&gt;&lt;/div&gt;&lt;div&gt;&lt;br&gt;&lt;/div&gt;&lt;div&gt;&lt;span style=&quot;color: rgb(34, 34, 34); font-family: &amp;quot;Roboto Flex&amp;quot;; font-size: 16px; background-color: rgb(255, 255, 255);&quot;&gt;quantity : int&lt;/span&gt;&lt;br&gt;&lt;/div&gt;" style="text;strokeColor=none;fillColor=none;spacingLeft=4;spacingRight=4;overflow=hidden;rotatable=0;points=[[0,0.5],[1,0.5]];portConstraint=eastwest;fontSize=12;whiteSpace=wrap;html=1;fontFamily=Helvetica;fontColor=default;rounded=0;" vertex="1" parent="pMV6OHs9eJrk2TMWCFJE-74">
          <mxGeometry y="26" width="160" height="114" as="geometry" />
        </mxCell>
        <mxCell id="pMV6OHs9eJrk2TMWCFJE-78" value="product " style="swimlane;fontStyle=0;childLayout=stackLayout;horizontal=1;startSize=26;horizontalStack=0;resizeParent=1;resizeParentMax=0;resizeLast=0;collapsible=1;marginBottom=0;align=center;fontSize=14;verticalAlign=middle;spacingLeft=4;spacingRight=4;fontFamily=Helvetica;fontColor=default;fillColor=none;gradientColor=none;rounded=0;" vertex="1" parent="1">
          <mxGeometry x="560" y="2320" width="160" height="200" as="geometry" />
        </mxCell>
        <mxCell id="pMV6OHs9eJrk2TMWCFJE-79" value="id : int&lt;div&gt;&lt;br&gt;&lt;/div&gt;&lt;div&gt;&lt;span style=&quot;color: rgb(34, 34, 34); font-family: &amp;quot;Roboto Flex&amp;quot;; font-size: 16px; background-color: rgb(255, 255, 255);&quot;&gt;name : varchar(100)&lt;/span&gt;&lt;br&gt;&lt;/div&gt;&lt;div&gt;&lt;span style=&quot;color: rgb(34, 34, 34); font-family: &amp;quot;Roboto Flex&amp;quot;; font-size: 16px; background-color: rgb(255, 255, 255);&quot;&gt;&lt;br&gt;&lt;/span&gt;&lt;/div&gt;&lt;div&gt;&lt;span style=&quot;color: rgb(34, 34, 34); font-family: &amp;quot;Roboto Flex&amp;quot;; font-size: 16px; background-color: rgb(255, 255, 255);&quot;&gt;price : double&lt;/span&gt;&lt;span style=&quot;color: rgb(34, 34, 34); font-family: &amp;quot;Roboto Flex&amp;quot;; font-size: 16px; background-color: rgb(255, 255, 255);&quot;&gt;&lt;br&gt;&lt;/span&gt;&lt;/div&gt;&lt;div&gt;&lt;span style=&quot;color: rgb(34, 34, 34); font-family: &amp;quot;Roboto Flex&amp;quot;; font-size: 16px; background-color: rgb(255, 255, 255);&quot;&gt;&lt;br&gt;&lt;/span&gt;&lt;/div&gt;&lt;div&gt;&lt;span style=&quot;color: rgb(34, 34, 34); font-family: &amp;quot;Roboto Flex&amp;quot;; font-size: 16px; background-color: rgb(255, 255, 255);&quot;&gt;stock : int&lt;/span&gt;&lt;span style=&quot;color: rgb(34, 34, 34); font-family: &amp;quot;Roboto Flex&amp;quot;; font-size: 16px; background-color: rgb(255, 255, 255);&quot;&gt;&lt;br&gt;&lt;/span&gt;&lt;/div&gt;&lt;div&gt;&lt;span style=&quot;color: rgb(34, 34, 34); font-family: &amp;quot;Roboto Flex&amp;quot;; font-size: 16px; background-color: rgb(255, 255, 255);&quot;&gt;&lt;br&gt;&lt;/span&gt;&lt;/div&gt;&lt;div&gt;&lt;span style=&quot;color: rgb(34, 34, 34); font-family: &amp;quot;Roboto Flex&amp;quot;; font-size: 16px; background-color: rgb(255, 255, 255);&quot;&gt;status : bit&lt;/span&gt;&lt;span style=&quot;color: rgb(34, 34, 34); font-family: &amp;quot;Roboto Flex&amp;quot;; font-size: 16px; background-color: rgb(255, 255, 255);&quot;&gt;&lt;br&gt;&lt;/span&gt;&lt;/div&gt;&lt;div&gt;&lt;span style=&quot;color: rgb(34, 34, 34); font-family: &amp;quot;Roboto Flex&amp;quot;; font-size: 16px; background-color: rgb(255, 255, 255);&quot;&gt;&lt;br&gt;&lt;/span&gt;&lt;/div&gt;&lt;div&gt;&lt;span style=&quot;color: rgb(34, 34, 34); font-family: &amp;quot;Roboto Flex&amp;quot;; font-size: 16px; background-color: rgb(255, 255, 255);&quot;&gt;&lt;br&gt;&lt;/span&gt;&lt;/div&gt;" style="text;strokeColor=none;fillColor=none;spacingLeft=4;spacingRight=4;overflow=hidden;rotatable=0;points=[[0,0.5],[1,0.5]];portConstraint=eastwest;fontSize=12;whiteSpace=wrap;html=1;fontFamily=Helvetica;fontColor=default;rounded=0;" vertex="1" parent="pMV6OHs9eJrk2TMWCFJE-78">
          <mxGeometry y="26" width="160" height="174" as="geometry" />
        </mxCell>
        <mxCell id="pMV6OHs9eJrk2TMWCFJE-82" value="" style="edgeStyle=entityRelationEdgeStyle;fontSize=12;html=1;endArrow=ERzeroToMany;startArrow=ERmandOne;rounded=0;fontFamily=Helvetica;fontColor=default;exitX=1.008;exitY=0.086;exitDx=0;exitDy=0;exitPerimeter=0;entryX=-0.004;entryY=0.354;entryDx=0;entryDy=0;entryPerimeter=0;" edge="1" parent="1" source="pMV6OHs9eJrk2TMWCFJE-71" target="pMV6OHs9eJrk2TMWCFJE-75">
          <mxGeometry width="100" height="100" relative="1" as="geometry">
            <mxPoint x="280" y="2420" as="sourcePoint" />
            <mxPoint x="380" y="2320" as="targetPoint" />
          </mxGeometry>
        </mxCell>
        <mxCell id="pMV6OHs9eJrk2TMWCFJE-83" value="" style="edgeStyle=entityRelationEdgeStyle;fontSize=12;html=1;endArrow=ERzeroToMany;startArrow=ERmandOne;rounded=0;fontFamily=Helvetica;fontColor=default;entryX=1;entryY=0.64;entryDx=0;entryDy=0;entryPerimeter=0;exitX=0;exitY=0.086;exitDx=0;exitDy=0;exitPerimeter=0;" edge="1" parent="1" source="pMV6OHs9eJrk2TMWCFJE-79" target="pMV6OHs9eJrk2TMWCFJE-75">
          <mxGeometry width="100" height="100" relative="1" as="geometry">
            <mxPoint x="520" y="2390" as="sourcePoint" />
            <mxPoint x="380" y="2320" as="targetPoint" />
          </mxGeometry>
        </mxCell>
        <mxCell id="pMV6OHs9eJrk2TMWCFJE-84" value="&lt;font style=&quot;font-size: 18px;&quot;&gt;bai tap 5:&lt;/font&gt;" style="text;strokeColor=none;fillColor=none;spacingLeft=4;spacingRight=4;overflow=hidden;rotatable=0;points=[[0,0.5],[1,0.5]];portConstraint=eastwest;fontSize=12;whiteSpace=wrap;html=1;fontFamily=Helvetica;fontColor=default;rounded=0;" vertex="1" parent="1">
          <mxGeometry x="40" y="2610" width="120" height="30" as="geometry" />
        </mxCell>
        <mxCell id="pMV6OHs9eJrk2TMWCFJE-86" value="class" style="swimlane;fontStyle=0;childLayout=stackLayout;horizontal=1;startSize=26;horizontalStack=0;resizeParent=1;resizeParentMax=0;resizeLast=0;collapsible=1;marginBottom=0;align=center;fontSize=14;verticalAlign=middle;spacingLeft=4;spacingRight=4;fontFamily=Helvetica;fontColor=default;fillColor=none;gradientColor=none;rounded=0;" vertex="1" parent="1">
          <mxGeometry x="40" y="2720" width="200" height="180" as="geometry" />
        </mxCell>
        <mxCell id="pMV6OHs9eJrk2TMWCFJE-87" value="&lt;div&gt;&lt;span style=&quot;color: rgb(34, 34, 34); font-family: &amp;quot;Roboto Flex&amp;quot;; font-size: 16px; background-color: rgb(255, 255, 255);&quot;&gt;class_id : int&lt;/span&gt;&lt;br&gt;&lt;/div&gt;&lt;div&gt;&lt;span style=&quot;color: rgb(34, 34, 34); font-family: &amp;quot;Roboto Flex&amp;quot;; font-size: 16px; background-color: rgb(255, 255, 255);&quot;&gt;&lt;br&gt;&lt;/span&gt;&lt;/div&gt;&lt;div&gt;&lt;span style=&quot;color: rgb(34, 34, 34); font-family: &amp;quot;Roboto Flex&amp;quot;; font-size: 16px; background-color: rgb(255, 255, 255);&quot;&gt;class_name : varchar(100)&lt;/span&gt;&lt;br&gt;&lt;/div&gt;&lt;div&gt;&lt;span style=&quot;color: rgb(34, 34, 34); font-family: &amp;quot;Roboto Flex&amp;quot;; font-size: 16px; background-color: rgb(255, 255, 255);&quot;&gt;&lt;br&gt;&lt;/span&gt;&lt;/div&gt;&lt;div&gt;&lt;span style=&quot;color: rgb(34, 34, 34); font-family: &amp;quot;Roboto Flex&amp;quot;; font-size: 16px; background-color: rgb(255, 255, 255);&quot;&gt;start_date : datetime&lt;/span&gt;&lt;span style=&quot;color: rgb(34, 34, 34); font-family: &amp;quot;Roboto Flex&amp;quot;; font-size: 16px; background-color: rgb(255, 255, 255);&quot;&gt;&lt;br&gt;&lt;/span&gt;&lt;/div&gt;&lt;div&gt;&lt;span style=&quot;color: rgb(34, 34, 34); font-family: &amp;quot;Roboto Flex&amp;quot;; font-size: 16px; background-color: rgb(255, 255, 255);&quot;&gt;&lt;br&gt;&lt;/span&gt;&lt;/div&gt;&lt;div&gt;&lt;span style=&quot;color: rgb(34, 34, 34); font-family: &amp;quot;Roboto Flex&amp;quot;; font-size: 16px; background-color: rgb(255, 255, 255);&quot;&gt;s&lt;/span&gt;&lt;span style=&quot;background-color: rgb(255, 255, 255); color: rgb(34, 34, 34); font-family: &amp;quot;Roboto Flex&amp;quot;; font-size: 16px;&quot;&gt;tatus : bit&lt;/span&gt;&lt;span style=&quot;color: rgb(34, 34, 34); font-family: &amp;quot;Roboto Flex&amp;quot;; font-size: 16px; background-color: rgb(255, 255, 255);&quot;&gt;&lt;br&gt;&lt;/span&gt;&lt;/div&gt;&lt;div&gt;&lt;span style=&quot;color: rgb(34, 34, 34); font-family: &amp;quot;Roboto Flex&amp;quot;; font-size: 16px; background-color: rgb(255, 255, 255);&quot;&gt;&lt;br&gt;&lt;/span&gt;&lt;/div&gt;&lt;div&gt;&lt;span style=&quot;color: rgb(34, 34, 34); font-family: &amp;quot;Roboto Flex&amp;quot;; font-size: 16px; background-color: rgb(255, 255, 255);&quot;&gt;&lt;br&gt;&lt;/span&gt;&lt;/div&gt;&lt;div&gt;&lt;span style=&quot;color: rgb(34, 34, 34); font-family: &amp;quot;Roboto Flex&amp;quot;; font-size: 16px; background-color: rgb(255, 255, 255);&quot;&gt;&lt;br&gt;&lt;/span&gt;&lt;/div&gt;&lt;div&gt;&lt;span style=&quot;color: rgb(34, 34, 34); font-family: &amp;quot;Roboto Flex&amp;quot;; font-size: 16px; background-color: rgb(255, 255, 255);&quot;&gt;&lt;br&gt;&lt;/span&gt;&lt;/div&gt;" style="text;strokeColor=none;fillColor=none;spacingLeft=4;spacingRight=4;overflow=hidden;rotatable=0;points=[[0,0.5],[1,0.5]];portConstraint=eastwest;fontSize=12;whiteSpace=wrap;html=1;fontFamily=Helvetica;fontColor=default;rounded=0;" vertex="1" parent="pMV6OHs9eJrk2TMWCFJE-86">
          <mxGeometry y="26" width="200" height="154" as="geometry" />
        </mxCell>
        <mxCell id="pMV6OHs9eJrk2TMWCFJE-88" value="students" style="swimlane;fontStyle=0;childLayout=stackLayout;horizontal=1;startSize=26;horizontalStack=0;resizeParent=1;resizeParentMax=0;resizeLast=0;collapsible=1;marginBottom=0;align=center;fontSize=14;verticalAlign=middle;spacingLeft=4;spacingRight=4;fontFamily=Helvetica;fontColor=default;fillColor=none;gradientColor=none;rounded=0;" vertex="1" parent="1">
          <mxGeometry x="420" y="2720" width="200" height="250" as="geometry" />
        </mxCell>
        <mxCell id="pMV6OHs9eJrk2TMWCFJE-89" value="&lt;div&gt;&lt;span style=&quot;color: rgb(34, 34, 34); font-family: &amp;quot;Roboto Flex&amp;quot;; font-size: 16px; background-color: rgb(255, 255, 255);&quot;&gt;student_id : int&lt;/span&gt;&lt;br&gt;&lt;/div&gt;&lt;div&gt;&lt;span style=&quot;color: rgb(34, 34, 34); font-family: &amp;quot;Roboto Flex&amp;quot;; font-size: 16px; background-color: rgb(255, 255, 255);&quot;&gt;&lt;br&gt;&lt;/span&gt;&lt;/div&gt;&lt;div&gt;&lt;span style=&quot;color: rgb(34, 34, 34); font-family: &amp;quot;Roboto Flex&amp;quot;; font-size: 16px; background-color: rgb(255, 255, 255);&quot;&gt;student_name : varchar(100)&lt;/span&gt;&lt;br&gt;&lt;/div&gt;&lt;div&gt;&lt;span style=&quot;color: rgb(34, 34, 34); font-family: &amp;quot;Roboto Flex&amp;quot;; font-size: 16px; background-color: rgb(255, 255, 255);&quot;&gt;&lt;br&gt;&lt;/span&gt;&lt;/div&gt;&lt;div&gt;&lt;span style=&quot;color: rgb(34, 34, 34); font-family: &amp;quot;Roboto Flex&amp;quot;; font-size: 16px; background-color: rgb(255, 255, 255);&quot;&gt;address : varchar(255)&lt;/span&gt;&lt;span style=&quot;color: rgb(34, 34, 34); font-family: &amp;quot;Roboto Flex&amp;quot;; font-size: 16px; background-color: rgb(255, 255, 255);&quot;&gt;&lt;br&gt;&lt;/span&gt;&lt;/div&gt;&lt;div&gt;&lt;span style=&quot;color: rgb(34, 34, 34); font-family: &amp;quot;Roboto Flex&amp;quot;; font-size: 16px; background-color: rgb(255, 255, 255);&quot;&gt;&lt;br&gt;&lt;/span&gt;&lt;/div&gt;&lt;div&gt;&lt;span style=&quot;color: rgb(34, 34, 34); font-family: &amp;quot;Roboto Flex&amp;quot;; font-size: 16px; background-color: rgb(255, 255, 255);&quot;&gt;phone : varchar(11)&lt;/span&gt;&lt;span style=&quot;color: rgb(34, 34, 34); font-family: &amp;quot;Roboto Flex&amp;quot;; font-size: 16px; background-color: rgb(255, 255, 255);&quot;&gt;&lt;br&gt;&lt;/span&gt;&lt;/div&gt;&lt;div&gt;&lt;span style=&quot;color: rgb(34, 34, 34); font-family: &amp;quot;Roboto Flex&amp;quot;; font-size: 16px; background-color: rgb(255, 255, 255);&quot;&gt;&lt;br&gt;&lt;/span&gt;&lt;/div&gt;&lt;div&gt;&lt;span style=&quot;color: rgb(34, 34, 34); font-family: &amp;quot;Roboto Flex&amp;quot;; font-size: 16px; background-color: rgb(255, 255, 255);&quot;&gt;class_id : int&lt;/span&gt;&lt;span style=&quot;color: rgb(34, 34, 34); font-family: &amp;quot;Roboto Flex&amp;quot;; font-size: 16px; background-color: rgb(255, 255, 255);&quot;&gt;&lt;br&gt;&lt;/span&gt;&lt;/div&gt;&lt;div&gt;&lt;span style=&quot;color: rgb(34, 34, 34); font-family: &amp;quot;Roboto Flex&amp;quot;; font-size: 16px; background-color: rgb(255, 255, 255);&quot;&gt;&lt;br&gt;&lt;/span&gt;&lt;/div&gt;&lt;div&gt;&lt;span style=&quot;color: rgb(34, 34, 34); font-family: &amp;quot;Roboto Flex&amp;quot;; font-size: 16px; background-color: rgb(255, 255, 255);&quot;&gt;status : bit&lt;/span&gt;&lt;span style=&quot;color: rgb(34, 34, 34); font-family: &amp;quot;Roboto Flex&amp;quot;; font-size: 16px; background-color: rgb(255, 255, 255);&quot;&gt;&lt;br&gt;&lt;/span&gt;&lt;/div&gt;&lt;div&gt;&lt;span style=&quot;color: rgb(34, 34, 34); font-family: &amp;quot;Roboto Flex&amp;quot;; font-size: 16px; background-color: rgb(255, 255, 255);&quot;&gt;&lt;br&gt;&lt;/span&gt;&lt;/div&gt;&lt;div&gt;&lt;span style=&quot;color: rgb(34, 34, 34); font-family: &amp;quot;Roboto Flex&amp;quot;; font-size: 16px; background-color: rgb(255, 255, 255);&quot;&gt;&lt;br&gt;&lt;/span&gt;&lt;/div&gt;&lt;div&gt;&lt;span style=&quot;color: rgb(34, 34, 34); font-family: &amp;quot;Roboto Flex&amp;quot;; font-size: 16px; background-color: rgb(255, 255, 255);&quot;&gt;&lt;br&gt;&lt;/span&gt;&lt;/div&gt;&lt;div&gt;&lt;span style=&quot;color: rgb(34, 34, 34); font-family: &amp;quot;Roboto Flex&amp;quot;; font-size: 16px; background-color: rgb(255, 255, 255);&quot;&gt;&lt;br&gt;&lt;/span&gt;&lt;/div&gt;" style="text;strokeColor=none;fillColor=none;spacingLeft=4;spacingRight=4;overflow=hidden;rotatable=0;points=[[0,0.5],[1,0.5]];portConstraint=eastwest;fontSize=12;whiteSpace=wrap;html=1;fontFamily=Helvetica;fontColor=default;rounded=0;" vertex="1" parent="pMV6OHs9eJrk2TMWCFJE-88">
          <mxGeometry y="26" width="200" height="224" as="geometry" />
        </mxCell>
        <mxCell id="pMV6OHs9eJrk2TMWCFJE-90" value="subject" style="swimlane;fontStyle=0;childLayout=stackLayout;horizontal=1;startSize=26;horizontalStack=0;resizeParent=1;resizeParentMax=0;resizeLast=0;collapsible=1;marginBottom=0;align=center;fontSize=14;verticalAlign=middle;spacingLeft=4;spacingRight=4;fontFamily=Helvetica;fontColor=default;fillColor=none;gradientColor=none;rounded=0;" vertex="1" parent="1">
          <mxGeometry x="70" y="3080" width="200" height="180" as="geometry" />
        </mxCell>
        <mxCell id="pMV6OHs9eJrk2TMWCFJE-91" value="&lt;div&gt;&lt;span style=&quot;color: rgb(34, 34, 34); font-family: &amp;quot;Roboto Flex&amp;quot;; font-size: 16px; background-color: rgb(255, 255, 255);&quot;&gt;s&lt;/span&gt;&lt;span style=&quot;background-color: rgb(255, 255, 255); color: rgb(34, 34, 34); font-family: &amp;quot;Roboto Flex&amp;quot;; font-size: 16px;&quot;&gt;ubject_id : int&lt;/span&gt;&lt;span style=&quot;background-color: rgb(255, 255, 255); color: rgb(34, 34, 34); font-family: &amp;quot;Roboto Flex&amp;quot;; font-size: 16px;&quot;&gt;&amp;nbsp;&lt;/span&gt;&lt;br&gt;&lt;/div&gt;&lt;div&gt;&lt;span style=&quot;color: rgb(34, 34, 34); font-family: &amp;quot;Roboto Flex&amp;quot;; font-size: 16px; background-color: rgb(255, 255, 255);&quot;&gt;&lt;br&gt;&lt;/span&gt;&lt;/div&gt;&lt;div&gt;&lt;span style=&quot;color: rgb(34, 34, 34); font-family: &amp;quot;Roboto Flex&amp;quot;; font-size: 16px; background-color: rgb(255, 255, 255);&quot;&gt;s&lt;/span&gt;&lt;span style=&quot;background-color: rgb(255, 255, 255); color: rgb(34, 34, 34); font-family: &amp;quot;Roboto Flex&amp;quot;; font-size: 16px;&quot;&gt;ubject_name : varchar(100)&lt;/span&gt;&lt;br&gt;&lt;/div&gt;&lt;div&gt;&lt;span style=&quot;color: rgb(34, 34, 34); font-family: &amp;quot;Roboto Flex&amp;quot;; font-size: 16px; background-color: rgb(255, 255, 255);&quot;&gt;&lt;br&gt;&lt;/span&gt;&lt;/div&gt;&lt;div&gt;&lt;span style=&quot;color: rgb(34, 34, 34); font-family: &amp;quot;Roboto Flex&amp;quot;; font-size: 16px; background-color: rgb(255, 255, 255);&quot;&gt;credit : int&amp;nbsp;&lt;/span&gt;&lt;span style=&quot;color: rgb(34, 34, 34); font-family: &amp;quot;Roboto Flex&amp;quot;; font-size: 16px; background-color: rgb(255, 255, 255);&quot;&gt;&lt;br&gt;&lt;/span&gt;&lt;/div&gt;&lt;div&gt;&lt;span style=&quot;color: rgb(34, 34, 34); font-family: &amp;quot;Roboto Flex&amp;quot;; font-size: 16px; background-color: rgb(255, 255, 255);&quot;&gt;&lt;br&gt;&lt;/span&gt;&lt;/div&gt;&lt;div&gt;&lt;span style=&quot;color: rgb(34, 34, 34); font-family: &amp;quot;Roboto Flex&amp;quot;; font-size: 16px; background-color: rgb(255, 255, 255);&quot;&gt;status : bit&lt;/span&gt;&lt;span style=&quot;color: rgb(34, 34, 34); font-family: &amp;quot;Roboto Flex&amp;quot;; font-size: 16px; background-color: rgb(255, 255, 255);&quot;&gt;&lt;br&gt;&lt;/span&gt;&lt;/div&gt;&lt;div&gt;&lt;span style=&quot;color: rgb(34, 34, 34); font-family: &amp;quot;Roboto Flex&amp;quot;; font-size: 16px; background-color: rgb(255, 255, 255);&quot;&gt;&lt;br&gt;&lt;/span&gt;&lt;/div&gt;&lt;div&gt;&lt;br&gt;&lt;/div&gt;&lt;div&gt;&lt;span style=&quot;color: rgb(34, 34, 34); font-family: &amp;quot;Roboto Flex&amp;quot;; font-size: 16px; background-color: rgb(255, 255, 255);&quot;&gt;&lt;br&gt;&lt;/span&gt;&lt;/div&gt;&lt;div&gt;&lt;span style=&quot;color: rgb(34, 34, 34); font-family: &amp;quot;Roboto Flex&amp;quot;; font-size: 16px; background-color: rgb(255, 255, 255);&quot;&gt;&lt;br&gt;&lt;/span&gt;&lt;/div&gt;&lt;div&gt;&lt;span style=&quot;color: rgb(34, 34, 34); font-family: &amp;quot;Roboto Flex&amp;quot;; font-size: 16px; background-color: rgb(255, 255, 255);&quot;&gt;&lt;br&gt;&lt;/span&gt;&lt;/div&gt;&lt;div&gt;&lt;span style=&quot;color: rgb(34, 34, 34); font-family: &amp;quot;Roboto Flex&amp;quot;; font-size: 16px; background-color: rgb(255, 255, 255);&quot;&gt;&lt;br&gt;&lt;/span&gt;&lt;/div&gt;" style="text;strokeColor=none;fillColor=none;spacingLeft=4;spacingRight=4;overflow=hidden;rotatable=0;points=[[0,0.5],[1,0.5]];portConstraint=eastwest;fontSize=12;whiteSpace=wrap;html=1;fontFamily=Helvetica;fontColor=default;rounded=0;" vertex="1" parent="pMV6OHs9eJrk2TMWCFJE-90">
          <mxGeometry y="26" width="200" height="154" as="geometry" />
        </mxCell>
        <mxCell id="pMV6OHs9eJrk2TMWCFJE-92" value="mark" style="swimlane;fontStyle=0;childLayout=stackLayout;horizontal=1;startSize=26;horizontalStack=0;resizeParent=1;resizeParentMax=0;resizeLast=0;collapsible=1;marginBottom=0;align=center;fontSize=14;verticalAlign=middle;spacingLeft=4;spacingRight=4;fontFamily=Helvetica;fontColor=default;fillColor=none;gradientColor=none;rounded=0;" vertex="1" parent="1">
          <mxGeometry x="420" y="3080" width="200" height="210" as="geometry" />
        </mxCell>
        <mxCell id="pMV6OHs9eJrk2TMWCFJE-93" value="&lt;div&gt;&lt;span style=&quot;color: rgb(34, 34, 34); font-family: &amp;quot;Roboto Flex&amp;quot;; font-size: 16px; background-color: rgb(255, 255, 255);&quot;&gt;id : int&lt;/span&gt;&lt;br&gt;&lt;/div&gt;&lt;div&gt;&lt;span style=&quot;color: rgb(34, 34, 34); font-family: &amp;quot;Roboto Flex&amp;quot;; font-size: 16px; background-color: rgb(255, 255, 255);&quot;&gt;&lt;br&gt;&lt;/span&gt;&lt;/div&gt;&lt;div&gt;&lt;span style=&quot;color: rgb(34, 34, 34); font-family: &amp;quot;Roboto Flex&amp;quot;; font-size: 16px; background-color: rgb(255, 255, 255);&quot;&gt;subject_id : int&lt;/span&gt;&lt;br&gt;&lt;/div&gt;&lt;div&gt;&lt;span style=&quot;color: rgb(34, 34, 34); font-family: &amp;quot;Roboto Flex&amp;quot;; font-size: 16px; background-color: rgb(255, 255, 255);&quot;&gt;&lt;br&gt;&lt;/span&gt;&lt;/div&gt;&lt;div&gt;&lt;span style=&quot;color: rgb(34, 34, 34); font-family: &amp;quot;Roboto Flex&amp;quot;; font-size: 16px; background-color: rgb(255, 255, 255);&quot;&gt;student_id : int&lt;/span&gt;&lt;br&gt;&lt;/div&gt;&lt;div&gt;&lt;span style=&quot;color: rgb(34, 34, 34); font-family: &amp;quot;Roboto Flex&amp;quot;; font-size: 16px; background-color: rgb(255, 255, 255);&quot;&gt;&lt;br&gt;&lt;/span&gt;&lt;/div&gt;&lt;div&gt;&lt;span style=&quot;color: rgb(34, 34, 34); font-family: &amp;quot;Roboto Flex&amp;quot;; font-size: 16px; background-color: rgb(255, 255, 255);&quot;&gt;point : double&lt;/span&gt;&lt;span style=&quot;color: rgb(34, 34, 34); font-family: &amp;quot;Roboto Flex&amp;quot;; font-size: 16px; background-color: rgb(255, 255, 255);&quot;&gt;&lt;br&gt;&lt;/span&gt;&lt;/div&gt;&lt;div&gt;&lt;span style=&quot;color: rgb(34, 34, 34); font-family: &amp;quot;Roboto Flex&amp;quot;; font-size: 16px; background-color: rgb(255, 255, 255);&quot;&gt;&lt;br&gt;&lt;/span&gt;&lt;/div&gt;&lt;div&gt;&lt;span style=&quot;color: rgb(34, 34, 34); font-family: &amp;quot;Roboto Flex&amp;quot;; font-size: 16px; background-color: rgb(255, 255, 255);&quot;&gt;exam_time : datetime&lt;/span&gt;&lt;span style=&quot;color: rgb(34, 34, 34); font-family: &amp;quot;Roboto Flex&amp;quot;; font-size: 16px; background-color: rgb(255, 255, 255);&quot;&gt;&lt;br&gt;&lt;/span&gt;&lt;/div&gt;&lt;div&gt;&lt;span style=&quot;color: rgb(34, 34, 34); font-family: &amp;quot;Roboto Flex&amp;quot;; font-size: 16px; background-color: rgb(255, 255, 255);&quot;&gt;&lt;br&gt;&lt;/span&gt;&lt;/div&gt;&lt;div&gt;&lt;br&gt;&lt;/div&gt;&lt;div&gt;&lt;span style=&quot;color: rgb(34, 34, 34); font-family: &amp;quot;Roboto Flex&amp;quot;; font-size: 16px; background-color: rgb(255, 255, 255);&quot;&gt;&lt;br&gt;&lt;/span&gt;&lt;/div&gt;&lt;div&gt;&lt;span style=&quot;color: rgb(34, 34, 34); font-family: &amp;quot;Roboto Flex&amp;quot;; font-size: 16px; background-color: rgb(255, 255, 255);&quot;&gt;&lt;br&gt;&lt;/span&gt;&lt;/div&gt;&lt;div&gt;&lt;span style=&quot;color: rgb(34, 34, 34); font-family: &amp;quot;Roboto Flex&amp;quot;; font-size: 16px; background-color: rgb(255, 255, 255);&quot;&gt;&lt;br&gt;&lt;/span&gt;&lt;/div&gt;&lt;div&gt;&lt;span style=&quot;color: rgb(34, 34, 34); font-family: &amp;quot;Roboto Flex&amp;quot;; font-size: 16px; background-color: rgb(255, 255, 255);&quot;&gt;&lt;br&gt;&lt;/span&gt;&lt;/div&gt;" style="text;strokeColor=none;fillColor=none;spacingLeft=4;spacingRight=4;overflow=hidden;rotatable=0;points=[[0,0.5],[1,0.5]];portConstraint=eastwest;fontSize=12;whiteSpace=wrap;html=1;fontFamily=Helvetica;fontColor=default;rounded=0;" vertex="1" parent="pMV6OHs9eJrk2TMWCFJE-92">
          <mxGeometry y="26" width="200" height="184" as="geometry" />
        </mxCell>
        <mxCell id="pMV6OHs9eJrk2TMWCFJE-94" value="" style="edgeStyle=entityRelationEdgeStyle;fontSize=12;html=1;endArrow=ERzeroToMany;startArrow=ERmandOne;rounded=0;fontFamily=Helvetica;fontColor=default;exitX=1.003;exitY=0.113;exitDx=0;exitDy=0;exitPerimeter=0;entryX=0;entryY=0.077;entryDx=0;entryDy=0;entryPerimeter=0;" edge="1" parent="1" source="pMV6OHs9eJrk2TMWCFJE-87" target="pMV6OHs9eJrk2TMWCFJE-89">
          <mxGeometry width="100" height="100" relative="1" as="geometry">
            <mxPoint x="410" y="2880" as="sourcePoint" />
            <mxPoint x="510" y="2780" as="targetPoint" />
          </mxGeometry>
        </mxCell>
        <mxCell id="pMV6OHs9eJrk2TMWCFJE-95" value="" style="edgeStyle=entityRelationEdgeStyle;fontSize=12;html=1;endArrow=ERzeroToMany;startArrow=ERmandOne;rounded=0;fontFamily=Helvetica;fontColor=default;exitX=1.003;exitY=0.068;exitDx=0;exitDy=0;exitPerimeter=0;entryX=1;entryY=0.5;entryDx=0;entryDy=0;" edge="1" parent="1" target="pMV6OHs9eJrk2TMWCFJE-93">
          <mxGeometry width="100" height="100" relative="1" as="geometry">
            <mxPoint x="619.9999999999999" y="2761.232" as="sourcePoint" />
            <mxPoint x="680" y="3120" as="targetPoint" />
            <Array as="points">
              <mxPoint x="709.4" y="2780" />
              <mxPoint x="719.4" y="2760" />
            </Array>
          </mxGeometry>
        </mxCell>
        <mxCell id="pMV6OHs9eJrk2TMWCFJE-96" value="" style="edgeStyle=entityRelationEdgeStyle;fontSize=12;html=1;endArrow=ERzeroToMany;startArrow=ERmandOne;rounded=0;fontFamily=Helvetica;fontColor=default;exitX=1.003;exitY=0.113;exitDx=0;exitDy=0;exitPerimeter=0;entryX=0;entryY=0.301;entryDx=0;entryDy=0;entryPerimeter=0;" edge="1" parent="1" target="pMV6OHs9eJrk2TMWCFJE-93">
          <mxGeometry width="100" height="100" relative="1" as="geometry">
            <mxPoint x="270" y="3120" as="sourcePoint" />
            <mxPoint x="449" y="3120" as="targetPoint" />
          </mxGeometry>
        </mxCell>
        <mxCell id="pMV6OHs9eJrk2TMWCFJE-97" value="Catalog" style="swimlane;fontStyle=0;childLayout=stackLayout;horizontal=1;startSize=26;horizontalStack=0;resizeParent=1;resizeParentMax=0;resizeLast=0;collapsible=1;marginBottom=0;align=center;fontSize=14;verticalAlign=middle;spacingLeft=4;spacingRight=4;fontFamily=Helvetica;fontColor=default;fillColor=none;gradientColor=none;rounded=0;" vertex="1" parent="1">
          <mxGeometry x="80" y="3480" width="200" height="140" as="geometry" />
        </mxCell>
        <mxCell id="pMV6OHs9eJrk2TMWCFJE-98" value="&lt;div&gt;&lt;span style=&quot;color: rgb(34, 34, 34); font-family: &amp;quot;Roboto Flex&amp;quot;; font-size: 16px; background-color: rgb(255, 255, 255);&quot;&gt;id : int&lt;/span&gt;&lt;br&gt;&lt;/div&gt;&lt;div&gt;&lt;span style=&quot;color: rgb(34, 34, 34); font-family: &amp;quot;Roboto Flex&amp;quot;; font-size: 16px; background-color: rgb(255, 255, 255);&quot;&gt;&lt;br&gt;&lt;/span&gt;&lt;/div&gt;&lt;div&gt;&lt;span style=&quot;color: rgb(34, 34, 34); font-family: &amp;quot;Roboto Flex&amp;quot;; font-size: 16px; background-color: rgb(255, 255, 255);&quot;&gt;name : varchar(100)&lt;/span&gt;&lt;/div&gt;&lt;div&gt;&lt;span style=&quot;color: rgb(34, 34, 34); font-family: &amp;quot;Roboto Flex&amp;quot;; font-size: 16px; background-color: rgb(255, 255, 255);&quot;&gt;&lt;br&gt;&lt;/span&gt;&lt;/div&gt;&lt;div&gt;&lt;span style=&quot;color: rgb(34, 34, 34); font-family: &amp;quot;Roboto Flex&amp;quot;; font-size: 16px; background-color: rgb(255, 255, 255);&quot;&gt;s&lt;/span&gt;&lt;span style=&quot;background-color: rgb(255, 255, 255); color: rgb(34, 34, 34); font-family: &amp;quot;Roboto Flex&amp;quot;; font-size: 16px;&quot;&gt;tatus : bit&lt;/span&gt;&lt;span style=&quot;color: rgb(34, 34, 34); font-family: &amp;quot;Roboto Flex&amp;quot;; font-size: 16px; background-color: rgb(255, 255, 255);&quot;&gt;&lt;br&gt;&lt;/span&gt;&lt;/div&gt;&lt;div&gt;&lt;span style=&quot;color: rgb(34, 34, 34); font-family: &amp;quot;Roboto Flex&amp;quot;; font-size: 16px; background-color: rgb(255, 255, 255);&quot;&gt;&lt;br&gt;&lt;/span&gt;&lt;/div&gt;&lt;div&gt;&lt;span style=&quot;color: rgb(34, 34, 34); font-family: &amp;quot;Roboto Flex&amp;quot;; font-size: 16px; background-color: rgb(255, 255, 255);&quot;&gt;&lt;br&gt;&lt;/span&gt;&lt;/div&gt;&lt;div&gt;&lt;span style=&quot;color: rgb(34, 34, 34); font-family: &amp;quot;Roboto Flex&amp;quot;; font-size: 16px; background-color: rgb(255, 255, 255);&quot;&gt;&lt;br&gt;&lt;/span&gt;&lt;/div&gt;&lt;div&gt;&lt;span style=&quot;color: rgb(34, 34, 34); font-family: &amp;quot;Roboto Flex&amp;quot;; font-size: 16px; background-color: rgb(255, 255, 255);&quot;&gt;&lt;br&gt;&lt;/span&gt;&lt;/div&gt;" style="text;strokeColor=none;fillColor=none;spacingLeft=4;spacingRight=4;overflow=hidden;rotatable=0;points=[[0,0.5],[1,0.5]];portConstraint=eastwest;fontSize=12;whiteSpace=wrap;html=1;fontFamily=Helvetica;fontColor=default;rounded=0;" vertex="1" parent="pMV6OHs9eJrk2TMWCFJE-97">
          <mxGeometry y="26" width="200" height="114" as="geometry" />
        </mxCell>
        <mxCell id="pMV6OHs9eJrk2TMWCFJE-99" value="Exam" style="swimlane;fontStyle=0;childLayout=stackLayout;horizontal=1;startSize=26;horizontalStack=0;resizeParent=1;resizeParentMax=0;resizeLast=0;collapsible=1;marginBottom=0;align=center;fontSize=14;verticalAlign=middle;spacingLeft=4;spacingRight=4;fontFamily=Helvetica;fontColor=default;fillColor=none;gradientColor=none;rounded=0;" vertex="1" parent="1">
          <mxGeometry x="460" y="3480" width="200" height="220" as="geometry" />
        </mxCell>
        <mxCell id="pMV6OHs9eJrk2TMWCFJE-100" value="&lt;div&gt;&lt;span style=&quot;color: rgb(34, 34, 34); font-family: &amp;quot;Roboto Flex&amp;quot;; font-size: 16px; background-color: rgb(255, 255, 255);&quot;&gt;id : int&lt;/span&gt;&lt;br&gt;&lt;/div&gt;&lt;div&gt;&lt;span style=&quot;color: rgb(34, 34, 34); font-family: &amp;quot;Roboto Flex&amp;quot;; font-size: 16px; background-color: rgb(255, 255, 255);&quot;&gt;&lt;br&gt;&lt;/span&gt;&lt;/div&gt;&lt;div&gt;&lt;span style=&quot;color: rgb(34, 34, 34); font-family: &amp;quot;Roboto Flex&amp;quot;; font-size: 16px; background-color: rgb(255, 255, 255);&quot;&gt;name : varchar(100)&lt;/span&gt;&lt;br&gt;&lt;/div&gt;&lt;div&gt;&lt;span style=&quot;color: rgb(34, 34, 34); font-family: &amp;quot;Roboto Flex&amp;quot;; font-size: 16px; background-color: rgb(255, 255, 255);&quot;&gt;&lt;br&gt;&lt;/span&gt;&lt;/div&gt;&lt;div&gt;&lt;span style=&quot;color: rgb(34, 34, 34); font-family: &amp;quot;Roboto Flex&amp;quot;; font-size: 16px; background-color: rgb(255, 255, 255);&quot;&gt;d&lt;/span&gt;&lt;span style=&quot;background-color: rgb(255, 255, 255); color: rgb(34, 34, 34); font-family: &amp;quot;Roboto Flex&amp;quot;; font-size: 16px;&quot;&gt;uration : int&lt;/span&gt;&lt;span style=&quot;color: rgb(34, 34, 34); font-family: &amp;quot;Roboto Flex&amp;quot;; font-size: 16px; background-color: rgb(255, 255, 255);&quot;&gt;&lt;br&gt;&lt;/span&gt;&lt;/div&gt;&lt;div&gt;&lt;span style=&quot;color: rgb(34, 34, 34); font-family: &amp;quot;Roboto Flex&amp;quot;; font-size: 16px; background-color: rgb(255, 255, 255);&quot;&gt;&lt;br&gt;&lt;/span&gt;&lt;/div&gt;&lt;div&gt;&lt;span style=&quot;color: rgb(34, 34, 34); font-family: &amp;quot;Roboto Flex&amp;quot;; font-size: 16px; background-color: rgb(255, 255, 255);&quot;&gt;catalog_id int&amp;nbsp;&lt;/span&gt;&lt;/div&gt;&lt;div&gt;&lt;span style=&quot;color: rgb(34, 34, 34); font-family: &amp;quot;Roboto Flex&amp;quot;; font-size: 16px; background-color: rgb(255, 255, 255);&quot;&gt;&lt;br&gt;&lt;/span&gt;&lt;/div&gt;&lt;div&gt;&lt;span style=&quot;color: rgb(34, 34, 34); font-family: &amp;quot;Roboto Flex&amp;quot;; font-size: 16px; background-color: rgb(255, 255, 255);&quot;&gt;status : bit&lt;/span&gt;&lt;span style=&quot;color: rgb(34, 34, 34); font-family: &amp;quot;Roboto Flex&amp;quot;; font-size: 16px; background-color: rgb(255, 255, 255);&quot;&gt;&lt;br&gt;&lt;/span&gt;&lt;/div&gt;&lt;div&gt;&lt;span style=&quot;color: rgb(34, 34, 34); font-family: &amp;quot;Roboto Flex&amp;quot;; font-size: 16px; background-color: rgb(255, 255, 255);&quot;&gt;&lt;br&gt;&lt;/span&gt;&lt;/div&gt;&lt;div&gt;&lt;span style=&quot;color: rgb(34, 34, 34); font-family: &amp;quot;Roboto Flex&amp;quot;; font-size: 16px; background-color: rgb(255, 255, 255);&quot;&gt;&lt;br&gt;&lt;/span&gt;&lt;/div&gt;&lt;div&gt;&lt;span style=&quot;color: rgb(34, 34, 34); font-family: &amp;quot;Roboto Flex&amp;quot;; font-size: 16px; background-color: rgb(255, 255, 255);&quot;&gt;&lt;br&gt;&lt;/span&gt;&lt;/div&gt;&lt;div&gt;&lt;span style=&quot;color: rgb(34, 34, 34); font-family: &amp;quot;Roboto Flex&amp;quot;; font-size: 16px; background-color: rgb(255, 255, 255);&quot;&gt;&lt;br&gt;&lt;/span&gt;&lt;/div&gt;" style="text;strokeColor=none;fillColor=none;spacingLeft=4;spacingRight=4;overflow=hidden;rotatable=0;points=[[0,0.5],[1,0.5]];portConstraint=eastwest;fontSize=12;whiteSpace=wrap;html=1;fontFamily=Helvetica;fontColor=default;rounded=0;" vertex="1" parent="pMV6OHs9eJrk2TMWCFJE-99">
          <mxGeometry y="26" width="200" height="194" as="geometry" />
        </mxCell>
        <mxCell id="pMV6OHs9eJrk2TMWCFJE-101" value="Answer" style="swimlane;fontStyle=0;childLayout=stackLayout;horizontal=1;startSize=26;horizontalStack=0;resizeParent=1;resizeParentMax=0;resizeLast=0;collapsible=1;marginBottom=0;align=center;fontSize=14;verticalAlign=middle;spacingLeft=4;spacingRight=4;fontFamily=Helvetica;fontColor=default;fillColor=none;gradientColor=none;rounded=0;" vertex="1" parent="1">
          <mxGeometry x="110" y="3840" width="200" height="180" as="geometry" />
        </mxCell>
        <mxCell id="pMV6OHs9eJrk2TMWCFJE-102" value="&lt;div&gt;&lt;span style=&quot;background-color: rgb(255, 255, 255); color: rgb(34, 34, 34); font-family: &amp;quot;Roboto Flex&amp;quot;; font-size: 16px;&quot;&gt;id : int&lt;/span&gt;&lt;span style=&quot;background-color: rgb(255, 255, 255); color: rgb(34, 34, 34); font-family: &amp;quot;Roboto Flex&amp;quot;; font-size: 16px;&quot;&gt;&amp;nbsp;&lt;/span&gt;&lt;br&gt;&lt;/div&gt;&lt;div&gt;&lt;span style=&quot;color: rgb(34, 34, 34); font-family: &amp;quot;Roboto Flex&amp;quot;; font-size: 16px; background-color: rgb(255, 255, 255);&quot;&gt;&lt;br&gt;&lt;/span&gt;&lt;/div&gt;&lt;div&gt;&lt;span style=&quot;color: rgb(34, 34, 34); font-family: &amp;quot;Roboto Flex&amp;quot;; font-size: 16px; background-color: rgb(255, 255, 255);&quot;&gt;question_id : int&amp;nbsp;&lt;/span&gt;&lt;br&gt;&lt;/div&gt;&lt;div&gt;&lt;span style=&quot;color: rgb(34, 34, 34); font-family: &amp;quot;Roboto Flex&amp;quot;; font-size: 16px; background-color: rgb(255, 255, 255);&quot;&gt;&lt;br&gt;&lt;/span&gt;&lt;/div&gt;&lt;div&gt;&lt;span style=&quot;background-color: rgb(255, 255, 255); color: rgb(34, 34, 34); font-family: &amp;quot;Roboto Flex&amp;quot;; font-size: 16px;&quot;&gt;content : varchar(255)&lt;/span&gt;&lt;span style=&quot;color: rgb(34, 34, 34); font-family: &amp;quot;Roboto Flex&amp;quot;; font-size: 16px; background-color: rgb(255, 255, 255);&quot;&gt;&amp;nbsp;&lt;/span&gt;&lt;span style=&quot;color: rgb(34, 34, 34); font-family: &amp;quot;Roboto Flex&amp;quot;; font-size: 16px; background-color: rgb(255, 255, 255);&quot;&gt;&lt;br&gt;&lt;/span&gt;&lt;/div&gt;&lt;div&gt;&lt;span style=&quot;color: rgb(34, 34, 34); font-family: &amp;quot;Roboto Flex&amp;quot;; font-size: 16px; background-color: rgb(255, 255, 255);&quot;&gt;&lt;br&gt;&lt;/span&gt;&lt;/div&gt;&lt;div&gt;&lt;span style=&quot;background-color: rgb(255, 255, 255); color: rgb(34, 34, 34); font-family: &amp;quot;Roboto Flex&amp;quot;; font-size: 16px;&quot;&gt;answerTrue&lt;/span&gt;&lt;span style=&quot;color: rgb(34, 34, 34); font-family: &amp;quot;Roboto Flex&amp;quot;; font-size: 16px; background-color: rgb(255, 255, 255);&quot;&gt;&amp;nbsp;: bit&lt;/span&gt;&lt;span style=&quot;color: rgb(34, 34, 34); font-family: &amp;quot;Roboto Flex&amp;quot;; font-size: 16px; background-color: rgb(255, 255, 255);&quot;&gt;&lt;br&gt;&lt;/span&gt;&lt;/div&gt;&lt;div&gt;&lt;span style=&quot;color: rgb(34, 34, 34); font-family: &amp;quot;Roboto Flex&amp;quot;; font-size: 16px; background-color: rgb(255, 255, 255);&quot;&gt;&lt;br&gt;&lt;/span&gt;&lt;/div&gt;&lt;div&gt;&lt;br&gt;&lt;/div&gt;&lt;div&gt;&lt;span style=&quot;color: rgb(34, 34, 34); font-family: &amp;quot;Roboto Flex&amp;quot;; font-size: 16px; background-color: rgb(255, 255, 255);&quot;&gt;&lt;br&gt;&lt;/span&gt;&lt;/div&gt;&lt;div&gt;&lt;span style=&quot;color: rgb(34, 34, 34); font-family: &amp;quot;Roboto Flex&amp;quot;; font-size: 16px; background-color: rgb(255, 255, 255);&quot;&gt;&lt;br&gt;&lt;/span&gt;&lt;/div&gt;&lt;div&gt;&lt;span style=&quot;color: rgb(34, 34, 34); font-family: &amp;quot;Roboto Flex&amp;quot;; font-size: 16px; background-color: rgb(255, 255, 255);&quot;&gt;&lt;br&gt;&lt;/span&gt;&lt;/div&gt;&lt;div&gt;&lt;span style=&quot;color: rgb(34, 34, 34); font-family: &amp;quot;Roboto Flex&amp;quot;; font-size: 16px; background-color: rgb(255, 255, 255);&quot;&gt;&lt;br&gt;&lt;/span&gt;&lt;/div&gt;" style="text;strokeColor=none;fillColor=none;spacingLeft=4;spacingRight=4;overflow=hidden;rotatable=0;points=[[0,0.5],[1,0.5]];portConstraint=eastwest;fontSize=12;whiteSpace=wrap;html=1;fontFamily=Helvetica;fontColor=default;rounded=0;" vertex="1" parent="pMV6OHs9eJrk2TMWCFJE-101">
          <mxGeometry y="26" width="200" height="154" as="geometry" />
        </mxCell>
        <mxCell id="pMV6OHs9eJrk2TMWCFJE-103" value="Question" style="swimlane;fontStyle=0;childLayout=stackLayout;horizontal=1;startSize=26;horizontalStack=0;resizeParent=1;resizeParentMax=0;resizeLast=0;collapsible=1;marginBottom=0;align=center;fontSize=14;verticalAlign=middle;spacingLeft=4;spacingRight=4;fontFamily=Helvetica;fontColor=default;fillColor=none;gradientColor=none;rounded=0;" vertex="1" parent="1">
          <mxGeometry x="460" y="3840" width="200" height="140" as="geometry" />
        </mxCell>
        <mxCell id="pMV6OHs9eJrk2TMWCFJE-104" value="&lt;div&gt;&lt;span style=&quot;color: rgb(34, 34, 34); font-family: &amp;quot;Roboto Flex&amp;quot;; font-size: 16px; background-color: rgb(255, 255, 255);&quot;&gt;id : int&lt;/span&gt;&lt;br&gt;&lt;/div&gt;&lt;div&gt;&lt;span style=&quot;color: rgb(34, 34, 34); font-family: &amp;quot;Roboto Flex&amp;quot;; font-size: 16px; background-color: rgb(255, 255, 255);&quot;&gt;&lt;br&gt;&lt;/span&gt;&lt;/div&gt;&lt;div&gt;&lt;span style=&quot;color: rgb(34, 34, 34); font-family: &amp;quot;Roboto Flex&amp;quot;; font-size: 16px; background-color: rgb(255, 255, 255);&quot;&gt;exam_id int&lt;/span&gt;&lt;br&gt;&lt;/div&gt;&lt;div&gt;&lt;span style=&quot;color: rgb(34, 34, 34); font-family: &amp;quot;Roboto Flex&amp;quot;; font-size: 16px; background-color: rgb(255, 255, 255);&quot;&gt;&lt;br&gt;&lt;/span&gt;&lt;/div&gt;&lt;div&gt;&lt;span style=&quot;color: rgb(34, 34, 34); font-family: &amp;quot;Roboto Flex&amp;quot;; font-size: 16px; background-color: rgb(255, 255, 255);&quot;&gt;content varchar(255)&lt;/span&gt;&lt;/div&gt;&lt;div&gt;&lt;br&gt;&lt;/div&gt;&lt;div&gt;&lt;span style=&quot;color: rgb(34, 34, 34); font-family: &amp;quot;Roboto Flex&amp;quot;; font-size: 16px; background-color: rgb(255, 255, 255);&quot;&gt;&lt;br&gt;&lt;/span&gt;&lt;/div&gt;&lt;div&gt;&lt;br&gt;&lt;/div&gt;" style="text;strokeColor=none;fillColor=none;spacingLeft=4;spacingRight=4;overflow=hidden;rotatable=0;points=[[0,0.5],[1,0.5]];portConstraint=eastwest;fontSize=12;whiteSpace=wrap;html=1;fontFamily=Helvetica;fontColor=default;rounded=0;" vertex="1" parent="pMV6OHs9eJrk2TMWCFJE-103">
          <mxGeometry y="26" width="200" height="114" as="geometry" />
        </mxCell>
        <mxCell id="pMV6OHs9eJrk2TMWCFJE-106" value="" style="edgeStyle=entityRelationEdgeStyle;fontSize=12;html=1;endArrow=ERzeroToMany;startArrow=ERmandOne;rounded=0;fontFamily=Helvetica;fontColor=default;exitX=1.003;exitY=0.068;exitDx=0;exitDy=0;exitPerimeter=0;entryX=1;entryY=0.5;entryDx=0;entryDy=0;" edge="1" parent="1" target="pMV6OHs9eJrk2TMWCFJE-104">
          <mxGeometry width="100" height="100" relative="1" as="geometry">
            <mxPoint x="659.9999999999999" y="3521.232" as="sourcePoint" />
            <mxPoint x="720" y="3880" as="targetPoint" />
            <Array as="points">
              <mxPoint x="749.4" y="3540" />
              <mxPoint x="759.4" y="3520" />
            </Array>
          </mxGeometry>
        </mxCell>
        <mxCell id="pMV6OHs9eJrk2TMWCFJE-107" value="" style="edgeStyle=entityRelationEdgeStyle;fontSize=12;html=1;endArrow=ERzeroToMany;startArrow=ERmandOne;rounded=0;fontFamily=Helvetica;fontColor=default;entryX=0.998;entryY=0.132;entryDx=0;entryDy=0;entryPerimeter=0;exitX=-0.002;exitY=0.161;exitDx=0;exitDy=0;exitPerimeter=0;" edge="1" parent="1" target="pMV6OHs9eJrk2TMWCFJE-102" source="pMV6OHs9eJrk2TMWCFJE-104">
          <mxGeometry width="100" height="100" relative="1" as="geometry">
            <mxPoint x="410" y="3930" as="sourcePoint" />
            <mxPoint x="380" y="3760" as="targetPoint" />
          </mxGeometry>
        </mxCell>
        <mxCell id="pMV6OHs9eJrk2TMWCFJE-108" value="&lt;font style=&quot;font-size: 18px;&quot;&gt;bai tap 6:&lt;/font&gt;" style="text;strokeColor=none;fillColor=none;spacingLeft=4;spacingRight=4;overflow=hidden;rotatable=0;points=[[0,0.5],[1,0.5]];portConstraint=eastwest;fontSize=12;whiteSpace=wrap;html=1;fontFamily=Helvetica;fontColor=default;rounded=0;" vertex="1" parent="1">
          <mxGeometry x="80" y="3370" width="120" height="30" as="geometry" />
        </mxCell>
        <mxCell id="pMV6OHs9eJrk2TMWCFJE-109" value="" style="edgeStyle=entityRelationEdgeStyle;fontSize=12;html=1;endArrow=ERzeroToMany;startArrow=ERmandOne;rounded=0;fontFamily=Helvetica;fontColor=default;entryX=1.005;entryY=0.143;entryDx=0;entryDy=0;entryPerimeter=0;exitX=0.002;exitY=0.095;exitDx=0;exitDy=0;exitPerimeter=0;" edge="1" parent="1" source="pMV6OHs9eJrk2TMWCFJE-100" target="pMV6OHs9eJrk2TMWCFJE-98">
          <mxGeometry width="100" height="100" relative="1" as="geometry">
            <mxPoint x="340" y="3570" as="sourcePoint" />
            <mxPoint x="370" y="3580" as="targetPoint" />
          </mxGeometry>
        </mxCell>
        <mxCell id="pMV6OHs9eJrk2TMWCFJE-110" value="warehouse" style="swimlane;fontStyle=0;childLayout=stackLayout;horizontal=1;startSize=26;horizontalStack=0;resizeParent=1;resizeParentMax=0;resizeLast=0;collapsible=1;marginBottom=0;align=center;fontSize=14;verticalAlign=middle;spacingLeft=4;spacingRight=4;fontFamily=Helvetica;fontColor=default;fillColor=none;gradientColor=none;rounded=0;" vertex="1" parent="1">
          <mxGeometry x="120" y="4240" width="200" height="170" as="geometry" />
        </mxCell>
        <mxCell id="pMV6OHs9eJrk2TMWCFJE-111" value="&lt;div&gt;&lt;span style=&quot;color: rgb(34, 34, 34); font-family: &amp;quot;Roboto Flex&amp;quot;; font-size: 16px; background-color: rgb(255, 255, 255);&quot;&gt;id : int&lt;/span&gt;&lt;br&gt;&lt;/div&gt;&lt;div&gt;&lt;span style=&quot;color: rgb(34, 34, 34); font-family: &amp;quot;Roboto Flex&amp;quot;; font-size: 16px; background-color: rgb(255, 255, 255);&quot;&gt;&lt;br&gt;&lt;/span&gt;&lt;/div&gt;&lt;div&gt;&lt;span style=&quot;color: rgb(34, 34, 34); font-family: &amp;quot;Roboto Flex&amp;quot;; font-size: 16px; background-color: rgb(255, 255, 255);&quot;&gt;name : varchar(100)&lt;/span&gt;&lt;/div&gt;&lt;div&gt;&lt;span style=&quot;color: rgb(34, 34, 34); font-family: &amp;quot;Roboto Flex&amp;quot;; font-size: 16px; background-color: rgb(255, 255, 255);&quot;&gt;&lt;br&gt;&lt;/span&gt;&lt;/div&gt;&lt;div&gt;&lt;span style=&quot;color: rgb(34, 34, 34); font-family: &amp;quot;Roboto Flex&amp;quot;; font-size: 16px; background-color: rgb(255, 255, 255);&quot;&gt;address : varchar(255)&lt;/span&gt;&lt;span style=&quot;color: rgb(34, 34, 34); font-family: &amp;quot;Roboto Flex&amp;quot;; font-size: 16px; background-color: rgb(255, 255, 255);&quot;&gt;&lt;br&gt;&lt;/span&gt;&lt;/div&gt;&lt;div&gt;&lt;span style=&quot;color: rgb(34, 34, 34); font-family: &amp;quot;Roboto Flex&amp;quot;; font-size: 16px; background-color: rgb(255, 255, 255);&quot;&gt;&lt;br&gt;&lt;/span&gt;&lt;/div&gt;&lt;div&gt;&lt;span style=&quot;color: rgb(34, 34, 34); font-family: &amp;quot;Roboto Flex&amp;quot;; font-size: 16px; background-color: rgb(255, 255, 255);&quot;&gt;s&lt;/span&gt;&lt;span style=&quot;background-color: rgb(255, 255, 255); color: rgb(34, 34, 34); font-family: &amp;quot;Roboto Flex&amp;quot;; font-size: 16px;&quot;&gt;tatus : bit&lt;/span&gt;&lt;span style=&quot;color: rgb(34, 34, 34); font-family: &amp;quot;Roboto Flex&amp;quot;; font-size: 16px; background-color: rgb(255, 255, 255);&quot;&gt;&lt;br&gt;&lt;/span&gt;&lt;/div&gt;&lt;div&gt;&lt;span style=&quot;color: rgb(34, 34, 34); font-family: &amp;quot;Roboto Flex&amp;quot;; font-size: 16px; background-color: rgb(255, 255, 255);&quot;&gt;&lt;br&gt;&lt;/span&gt;&lt;/div&gt;&lt;div&gt;&lt;span style=&quot;color: rgb(34, 34, 34); font-family: &amp;quot;Roboto Flex&amp;quot;; font-size: 16px; background-color: rgb(255, 255, 255);&quot;&gt;&lt;br&gt;&lt;/span&gt;&lt;/div&gt;&lt;div&gt;&lt;span style=&quot;color: rgb(34, 34, 34); font-family: &amp;quot;Roboto Flex&amp;quot;; font-size: 16px; background-color: rgb(255, 255, 255);&quot;&gt;&lt;br&gt;&lt;/span&gt;&lt;/div&gt;&lt;div&gt;&lt;span style=&quot;color: rgb(34, 34, 34); font-family: &amp;quot;Roboto Flex&amp;quot;; font-size: 16px; background-color: rgb(255, 255, 255);&quot;&gt;&lt;br&gt;&lt;/span&gt;&lt;/div&gt;" style="text;strokeColor=none;fillColor=none;spacingLeft=4;spacingRight=4;overflow=hidden;rotatable=0;points=[[0,0.5],[1,0.5]];portConstraint=eastwest;fontSize=12;whiteSpace=wrap;html=1;fontFamily=Helvetica;fontColor=default;rounded=0;" vertex="1" parent="pMV6OHs9eJrk2TMWCFJE-110">
          <mxGeometry y="26" width="200" height="144" as="geometry" />
        </mxCell>
        <mxCell id="pMV6OHs9eJrk2TMWCFJE-112" value="product" style="swimlane;fontStyle=0;childLayout=stackLayout;horizontal=1;startSize=26;horizontalStack=0;resizeParent=1;resizeParentMax=0;resizeLast=0;collapsible=1;marginBottom=0;align=center;fontSize=14;verticalAlign=middle;spacingLeft=4;spacingRight=4;fontFamily=Helvetica;fontColor=default;fillColor=none;gradientColor=none;rounded=0;" vertex="1" parent="1">
          <mxGeometry x="500" y="4240" width="200" height="220" as="geometry" />
        </mxCell>
        <mxCell id="pMV6OHs9eJrk2TMWCFJE-113" value="&lt;div&gt;&lt;span style=&quot;color: rgb(34, 34, 34); font-family: &amp;quot;Roboto Flex&amp;quot;; font-size: 16px; background-color: rgb(255, 255, 255);&quot;&gt;id : int&lt;/span&gt;&lt;br&gt;&lt;/div&gt;&lt;div&gt;&lt;span style=&quot;color: rgb(34, 34, 34); font-family: &amp;quot;Roboto Flex&amp;quot;; font-size: 16px; background-color: rgb(255, 255, 255);&quot;&gt;&lt;br&gt;&lt;/span&gt;&lt;/div&gt;&lt;div&gt;&lt;span style=&quot;color: rgb(34, 34, 34); font-family: &amp;quot;Roboto Flex&amp;quot;; font-size: 16px; background-color: rgb(255, 255, 255);&quot;&gt;name : varchar(100)&lt;/span&gt;&lt;br&gt;&lt;/div&gt;&lt;div&gt;&lt;span style=&quot;color: rgb(34, 34, 34); font-family: &amp;quot;Roboto Flex&amp;quot;; font-size: 16px; background-color: rgb(255, 255, 255);&quot;&gt;&lt;br&gt;&lt;/span&gt;&lt;/div&gt;&lt;div&gt;&lt;span style=&quot;color: rgb(34, 34, 34); font-family: &amp;quot;Roboto Flex&amp;quot;; font-size: 16px; background-color: rgb(255, 255, 255);&quot;&gt;price : double&lt;/span&gt;&lt;span style=&quot;color: rgb(34, 34, 34); font-family: &amp;quot;Roboto Flex&amp;quot;; font-size: 16px; background-color: rgb(255, 255, 255);&quot;&gt;&lt;br&gt;&lt;/span&gt;&lt;/div&gt;&lt;div&gt;&lt;span style=&quot;color: rgb(34, 34, 34); font-family: &amp;quot;Roboto Flex&amp;quot;; font-size: 16px; background-color: rgb(255, 255, 255);&quot;&gt;&lt;br&gt;&lt;/span&gt;&lt;/div&gt;&lt;div&gt;&lt;span style=&quot;background-color: rgb(255, 255, 255); color: rgb(34, 34, 34); font-family: &amp;quot;Roboto Flex&amp;quot;; font-size: 16px;&quot;&gt;stock : int&lt;/span&gt;&lt;span style=&quot;color: rgb(34, 34, 34); font-family: &amp;quot;Roboto Flex&amp;quot;; font-size: 16px; background-color: rgb(255, 255, 255);&quot;&gt;&amp;nbsp;&lt;/span&gt;&lt;/div&gt;&lt;div&gt;&lt;span style=&quot;color: rgb(34, 34, 34); font-family: &amp;quot;Roboto Flex&amp;quot;; font-size: 16px; background-color: rgb(255, 255, 255);&quot;&gt;&lt;br&gt;&lt;/span&gt;&lt;/div&gt;&lt;div&gt;&lt;span style=&quot;color: rgb(34, 34, 34); font-family: &amp;quot;Roboto Flex&amp;quot;; font-size: 16px; background-color: rgb(255, 255, 255);&quot;&gt;status : bit&lt;/span&gt;&lt;span style=&quot;color: rgb(34, 34, 34); font-family: &amp;quot;Roboto Flex&amp;quot;; font-size: 16px; background-color: rgb(255, 255, 255);&quot;&gt;&lt;br&gt;&lt;/span&gt;&lt;/div&gt;&lt;div&gt;&lt;span style=&quot;color: rgb(34, 34, 34); font-family: &amp;quot;Roboto Flex&amp;quot;; font-size: 16px; background-color: rgb(255, 255, 255);&quot;&gt;&lt;br&gt;&lt;/span&gt;&lt;/div&gt;&lt;div&gt;&lt;span style=&quot;color: rgb(34, 34, 34); font-family: &amp;quot;Roboto Flex&amp;quot;; font-size: 16px; background-color: rgb(255, 255, 255);&quot;&gt;&lt;br&gt;&lt;/span&gt;&lt;/div&gt;&lt;div&gt;&lt;span style=&quot;color: rgb(34, 34, 34); font-family: &amp;quot;Roboto Flex&amp;quot;; font-size: 16px; background-color: rgb(255, 255, 255);&quot;&gt;&lt;br&gt;&lt;/span&gt;&lt;/div&gt;&lt;div&gt;&lt;span style=&quot;color: rgb(34, 34, 34); font-family: &amp;quot;Roboto Flex&amp;quot;; font-size: 16px; background-color: rgb(255, 255, 255);&quot;&gt;&lt;br&gt;&lt;/span&gt;&lt;/div&gt;" style="text;strokeColor=none;fillColor=none;spacingLeft=4;spacingRight=4;overflow=hidden;rotatable=0;points=[[0,0.5],[1,0.5]];portConstraint=eastwest;fontSize=12;whiteSpace=wrap;html=1;fontFamily=Helvetica;fontColor=default;rounded=0;" vertex="1" parent="pMV6OHs9eJrk2TMWCFJE-112">
          <mxGeometry y="26" width="200" height="194" as="geometry" />
        </mxCell>
        <mxCell id="pMV6OHs9eJrk2TMWCFJE-114" value="bill" style="swimlane;fontStyle=0;childLayout=stackLayout;horizontal=1;startSize=26;horizontalStack=0;resizeParent=1;resizeParentMax=0;resizeLast=0;collapsible=1;marginBottom=0;align=center;fontSize=14;verticalAlign=middle;spacingLeft=4;spacingRight=4;fontFamily=Helvetica;fontColor=default;fillColor=none;gradientColor=none;rounded=0;" vertex="1" parent="1">
          <mxGeometry x="150" y="4600" width="200" height="250" as="geometry" />
        </mxCell>
        <mxCell id="pMV6OHs9eJrk2TMWCFJE-115" value="&lt;div&gt;&lt;span style=&quot;background-color: rgb(255, 255, 255); color: rgb(34, 34, 34); font-family: &amp;quot;Roboto Flex&amp;quot;; font-size: 16px;&quot;&gt;id : int&lt;/span&gt;&lt;span style=&quot;background-color: rgb(255, 255, 255); color: rgb(34, 34, 34); font-family: &amp;quot;Roboto Flex&amp;quot;; font-size: 16px;&quot;&gt;&amp;nbsp;&lt;/span&gt;&lt;br&gt;&lt;/div&gt;&lt;div&gt;&lt;span style=&quot;color: rgb(34, 34, 34); font-family: &amp;quot;Roboto Flex&amp;quot;; font-size: 16px; background-color: rgb(255, 255, 255);&quot;&gt;&lt;br&gt;&lt;/span&gt;&lt;/div&gt;&lt;div&gt;&lt;span style=&quot;color: rgb(34, 34, 34); font-family: &amp;quot;Roboto Flex&amp;quot;; font-size: 16px; background-color: rgb(255, 255, 255);&quot;&gt;type : bit&lt;/span&gt;&lt;br&gt;&lt;/div&gt;&lt;div&gt;&lt;span style=&quot;color: rgb(34, 34, 34); font-family: &amp;quot;Roboto Flex&amp;quot;; font-size: 16px; background-color: rgb(255, 255, 255);&quot;&gt;&lt;br&gt;&lt;/span&gt;&lt;/div&gt;&lt;div&gt;&lt;span style=&quot;background-color: rgb(255, 255, 255); color: rgb(34, 34, 34); font-family: &amp;quot;Roboto Flex&amp;quot;; font-size: 16px;&quot;&gt;totalPrice : double&lt;/span&gt;&lt;/div&gt;&lt;div&gt;&lt;span style=&quot;color: rgb(34, 34, 34); font-family: &amp;quot;Roboto Flex&amp;quot;; font-size: 16px; background-color: rgb(255, 255, 255);&quot;&gt;&lt;br&gt;&lt;/span&gt;&lt;/div&gt;&lt;div&gt;&lt;span style=&quot;background-color: rgb(255, 255, 255); color: rgb(34, 34, 34); font-family: &amp;quot;Roboto Flex&amp;quot;; font-size: 16px;&quot;&gt;created date&lt;/span&gt;&lt;/div&gt;&lt;div&gt;&lt;span style=&quot;color: rgb(34, 34, 34); font-family: &amp;quot;Roboto Flex&amp;quot;; font-size: 16px; background-color: rgb(255, 255, 255);&quot;&gt;&lt;br&gt;&lt;/span&gt;&lt;/div&gt;&lt;div&gt;&lt;span style=&quot;color: rgb(34, 34, 34); font-family: &amp;quot;Roboto Flex&amp;quot;; font-size: 16px; background-color: rgb(255, 255, 255);&quot;&gt;&amp;nbsp;&lt;/span&gt;&lt;span style=&quot;background-color: rgb(255, 255, 255); color: rgb(34, 34, 34); font-family: &amp;quot;Roboto Flex&amp;quot;; font-size: 16px;&quot;&gt;warehouse_id int&lt;/span&gt;&lt;span style=&quot;background-color: rgb(255, 255, 255); color: rgb(34, 34, 34); font-family: &amp;quot;Roboto Flex&amp;quot;; font-size: 16px;&quot;&gt;&amp;nbsp;&lt;/span&gt;&lt;span style=&quot;color: rgb(34, 34, 34); font-family: &amp;quot;Roboto Flex&amp;quot;; font-size: 16px; background-color: rgb(255, 255, 255);&quot;&gt;&lt;br&gt;&lt;/span&gt;&lt;/div&gt;&lt;div&gt;&lt;span style=&quot;color: rgb(34, 34, 34); font-family: &amp;quot;Roboto Flex&amp;quot;; font-size: 16px; background-color: rgb(255, 255, 255);&quot;&gt;&lt;br&gt;&lt;/span&gt;&lt;/div&gt;&lt;div&gt;&lt;span style=&quot;background-color: rgb(255, 255, 255); color: rgb(34, 34, 34); font-family: &amp;quot;Roboto Flex&amp;quot;; font-size: 16px;&quot;&gt;status&lt;/span&gt;&lt;span style=&quot;background-color: rgb(255, 255, 255); color: rgb(34, 34, 34); font-family: &amp;quot;Roboto Flex&amp;quot;; font-size: 16px;&quot;&gt;&amp;nbsp;&lt;/span&gt;&lt;span style=&quot;color: rgb(34, 34, 34); font-family: &amp;quot;Roboto Flex&amp;quot;; font-size: 16px; background-color: rgb(255, 255, 255);&quot;&gt;: bit&lt;/span&gt;&lt;span style=&quot;color: rgb(34, 34, 34); font-family: &amp;quot;Roboto Flex&amp;quot;; font-size: 16px; background-color: rgb(255, 255, 255);&quot;&gt;&lt;br&gt;&lt;/span&gt;&lt;/div&gt;&lt;div&gt;&lt;span style=&quot;color: rgb(34, 34, 34); font-family: &amp;quot;Roboto Flex&amp;quot;; font-size: 16px; background-color: rgb(255, 255, 255);&quot;&gt;&lt;br&gt;&lt;/span&gt;&lt;/div&gt;&lt;div&gt;&lt;br&gt;&lt;/div&gt;&lt;div&gt;&lt;span style=&quot;color: rgb(34, 34, 34); font-family: &amp;quot;Roboto Flex&amp;quot;; font-size: 16px; background-color: rgb(255, 255, 255);&quot;&gt;&lt;br&gt;&lt;/span&gt;&lt;/div&gt;&lt;div&gt;&lt;span style=&quot;color: rgb(34, 34, 34); font-family: &amp;quot;Roboto Flex&amp;quot;; font-size: 16px; background-color: rgb(255, 255, 255);&quot;&gt;&lt;br&gt;&lt;/span&gt;&lt;/div&gt;&lt;div&gt;&lt;span style=&quot;color: rgb(34, 34, 34); font-family: &amp;quot;Roboto Flex&amp;quot;; font-size: 16px; background-color: rgb(255, 255, 255);&quot;&gt;&lt;br&gt;&lt;/span&gt;&lt;/div&gt;&lt;div&gt;&lt;span style=&quot;color: rgb(34, 34, 34); font-family: &amp;quot;Roboto Flex&amp;quot;; font-size: 16px; background-color: rgb(255, 255, 255);&quot;&gt;&lt;br&gt;&lt;/span&gt;&lt;/div&gt;" style="text;strokeColor=none;fillColor=none;spacingLeft=4;spacingRight=4;overflow=hidden;rotatable=0;points=[[0,0.5],[1,0.5]];portConstraint=eastwest;fontSize=12;whiteSpace=wrap;html=1;fontFamily=Helvetica;fontColor=default;rounded=0;" vertex="1" parent="pMV6OHs9eJrk2TMWCFJE-114">
          <mxGeometry y="26" width="200" height="224" as="geometry" />
        </mxCell>
        <mxCell id="pMV6OHs9eJrk2TMWCFJE-116" value="bill_detail" style="swimlane;fontStyle=0;childLayout=stackLayout;horizontal=1;startSize=26;horizontalStack=0;resizeParent=1;resizeParentMax=0;resizeLast=0;collapsible=1;marginBottom=0;align=center;fontSize=14;verticalAlign=middle;spacingLeft=4;spacingRight=4;fontFamily=Helvetica;fontColor=default;fillColor=none;gradientColor=none;rounded=0;" vertex="1" parent="1">
          <mxGeometry x="500" y="4600" width="200" height="210" as="geometry" />
        </mxCell>
        <mxCell id="pMV6OHs9eJrk2TMWCFJE-117" value="&lt;div&gt;&lt;span style=&quot;color: rgb(34, 34, 34); font-family: &amp;quot;Roboto Flex&amp;quot;; font-size: 16px; background-color: rgb(255, 255, 255);&quot;&gt;id : int&lt;/span&gt;&lt;br&gt;&lt;/div&gt;&lt;div&gt;&lt;span style=&quot;color: rgb(34, 34, 34); font-family: &amp;quot;Roboto Flex&amp;quot;; font-size: 16px; background-color: rgb(255, 255, 255);&quot;&gt;&lt;br&gt;&lt;/span&gt;&lt;/div&gt;&lt;div&gt;&lt;span style=&quot;background-color: rgb(255, 255, 255); color: rgb(34, 34, 34); font-family: &amp;quot;Roboto Flex&amp;quot;; font-size: 16px;&quot;&gt;bill&lt;/span&gt;&lt;span style=&quot;color: rgb(34, 34, 34); font-family: &amp;quot;Roboto Flex&amp;quot;; font-size: 16px; background-color: rgb(255, 255, 255);&quot;&gt;_id int&lt;/span&gt;&lt;br&gt;&lt;/div&gt;&lt;div&gt;&lt;span style=&quot;color: rgb(34, 34, 34); font-family: &amp;quot;Roboto Flex&amp;quot;; font-size: 16px; background-color: rgb(255, 255, 255);&quot;&gt;&lt;br&gt;&lt;/span&gt;&lt;/div&gt;&lt;div&gt;&lt;span style=&quot;color: rgb(34, 34, 34); font-family: &amp;quot;Roboto Flex&amp;quot;; font-size: 16px; background-color: rgb(255, 255, 255);&quot;&gt;product_id int&lt;/span&gt;&lt;br&gt;&lt;/div&gt;&lt;div&gt;&lt;span style=&quot;color: rgb(34, 34, 34); font-family: &amp;quot;Roboto Flex&amp;quot;; font-size: 16px; background-color: rgb(255, 255, 255);&quot;&gt;&lt;br&gt;&lt;/span&gt;&lt;/div&gt;&lt;div&gt;&lt;span style=&quot;color: rgb(34, 34, 34); font-family: &amp;quot;Roboto Flex&amp;quot;; font-size: 16px; background-color: rgb(255, 255, 255);&quot;&gt;quantity : int&lt;/span&gt;&lt;span style=&quot;color: rgb(34, 34, 34); font-family: &amp;quot;Roboto Flex&amp;quot;; font-size: 16px; background-color: rgb(255, 255, 255);&quot;&gt;&lt;br&gt;&lt;/span&gt;&lt;/div&gt;&lt;div&gt;&lt;span style=&quot;color: rgb(34, 34, 34); font-family: &amp;quot;Roboto Flex&amp;quot;; font-size: 16px; background-color: rgb(255, 255, 255);&quot;&gt;&lt;br&gt;&lt;/span&gt;&lt;/div&gt;&lt;div&gt;&lt;span style=&quot;color: rgb(34, 34, 34); font-family: &amp;quot;Roboto Flex&amp;quot;; font-size: 16px; background-color: rgb(255, 255, 255);&quot;&gt;price : double&lt;/span&gt;&lt;span style=&quot;color: rgb(34, 34, 34); font-family: &amp;quot;Roboto Flex&amp;quot;; font-size: 16px; background-color: rgb(255, 255, 255);&quot;&gt;&lt;br&gt;&lt;/span&gt;&lt;/div&gt;&lt;div&gt;&lt;br&gt;&lt;/div&gt;&lt;div&gt;&lt;span style=&quot;color: rgb(34, 34, 34); font-family: &amp;quot;Roboto Flex&amp;quot;; font-size: 16px; background-color: rgb(255, 255, 255);&quot;&gt;&lt;br&gt;&lt;/span&gt;&lt;/div&gt;&lt;div&gt;&lt;br&gt;&lt;/div&gt;" style="text;strokeColor=none;fillColor=none;spacingLeft=4;spacingRight=4;overflow=hidden;rotatable=0;points=[[0,0.5],[1,0.5]];portConstraint=eastwest;fontSize=12;whiteSpace=wrap;html=1;fontFamily=Helvetica;fontColor=default;rounded=0;" vertex="1" parent="pMV6OHs9eJrk2TMWCFJE-116">
          <mxGeometry y="26" width="200" height="184" as="geometry" />
        </mxCell>
        <mxCell id="pMV6OHs9eJrk2TMWCFJE-118" value="" style="edgeStyle=entityRelationEdgeStyle;fontSize=12;html=1;endArrow=ERzeroToMany;startArrow=ERmandOne;rounded=0;fontFamily=Helvetica;fontColor=default;exitX=1.003;exitY=0.068;exitDx=0;exitDy=0;exitPerimeter=0;entryX=1;entryY=0.5;entryDx=0;entryDy=0;" edge="1" parent="1" target="pMV6OHs9eJrk2TMWCFJE-117">
          <mxGeometry width="100" height="100" relative="1" as="geometry">
            <mxPoint x="699.9999999999999" y="4281.232" as="sourcePoint" />
            <mxPoint x="760" y="4640" as="targetPoint" />
            <Array as="points">
              <mxPoint x="789.4" y="4300" />
              <mxPoint x="799.4" y="4280" />
            </Array>
          </mxGeometry>
        </mxCell>
        <mxCell id="pMV6OHs9eJrk2TMWCFJE-119" value="" style="edgeStyle=entityRelationEdgeStyle;fontSize=12;html=1;endArrow=ERzeroToMany;startArrow=ERmandOne;rounded=0;fontFamily=Helvetica;fontColor=default;exitX=0.998;exitY=0.07;exitDx=0;exitDy=0;exitPerimeter=0;entryX=0.002;entryY=0.295;entryDx=0;entryDy=0;entryPerimeter=0;" edge="1" parent="1" source="pMV6OHs9eJrk2TMWCFJE-115" target="pMV6OHs9eJrk2TMWCFJE-117">
          <mxGeometry width="100" height="100" relative="1" as="geometry">
            <mxPoint x="450" y="4690" as="sourcePoint" />
            <mxPoint x="460" y="4550" as="targetPoint" />
          </mxGeometry>
        </mxCell>
        <mxCell id="pMV6OHs9eJrk2TMWCFJE-120" value="" style="edgeStyle=entityRelationEdgeStyle;fontSize=12;html=1;endArrow=ERzeroToMany;startArrow=ERmandOne;rounded=0;fontFamily=Helvetica;fontColor=default;exitX=0.998;exitY=0.113;exitDx=0;exitDy=0;exitPerimeter=0;entryX=0.002;entryY=0.081;entryDx=0;entryDy=0;entryPerimeter=0;" edge="1" parent="1" source="pMV6OHs9eJrk2TMWCFJE-111" target="pMV6OHs9eJrk2TMWCFJE-113">
          <mxGeometry width="100" height="100" relative="1" as="geometry">
            <mxPoint x="380" y="4330" as="sourcePoint" />
            <mxPoint x="430" y="4230" as="targetPoint" />
          </mxGeometry>
        </mxCell>
        <mxCell id="pMV6OHs9eJrk2TMWCFJE-121" value="&lt;font style=&quot;font-size: 18px;&quot;&gt;bai tap 7:&lt;/font&gt;" style="text;strokeColor=none;fillColor=none;spacingLeft=4;spacingRight=4;overflow=hidden;rotatable=0;points=[[0,0.5],[1,0.5]];portConstraint=eastwest;fontSize=12;whiteSpace=wrap;html=1;fontFamily=Helvetica;fontColor=default;rounded=0;" vertex="1" parent="1">
          <mxGeometry x="120" y="4130" width="120" height="30" as="geometry" />
        </mxCell>
      </root>
    </mxGraphModel>
  </diagram>
  <diagram id="Gz6-tqYYv8ZO_1l_7wbX" name="Trang-2">
    <mxGraphModel dx="938" dy="421" grid="1" gridSize="10" guides="1" tooltips="1" connect="1" arrows="1" fold="1" page="1" pageScale="1" pageWidth="827" pageHeight="1169" math="0" shadow="0">
      <root>
        <mxCell id="0" />
        <mxCell id="1" parent="0" />
        <mxCell id="lYwkl2NRit8-uVe1gPpk-1" value="" style="edgeStyle=entityRelationEdgeStyle;fontSize=12;html=1;endArrow=ERone;endFill=1;rounded=0;fontFamily=Helvetica;fontColor=default;" edge="1" parent="1">
          <mxGeometry width="100" height="100" relative="1" as="geometry">
            <mxPoint x="210" y="270" as="sourcePoint" />
            <mxPoint x="310" y="170" as="targetPoint" />
          </mxGeometry>
        </mxCell>
      </root>
    </mxGraphModel>
  </diagram>
  <diagram id="Kwpu_7AA1emmyFMVZuSt" name="Trang-3">
    <mxGraphModel dx="938" dy="421" grid="1" gridSize="10" guides="1" tooltips="1" connect="1" arrows="1" fold="1" page="1" pageScale="1" pageWidth="827" pageHeight="1169" math="0" shadow="0">
      <root>
        <mxCell id="0" />
        <mxCell id="1" parent="0" />
        <mxCell id="W0s8lcINXL1koVtUCElK-1" value="" style="edgeStyle=entityRelationEdgeStyle;fontSize=12;html=1;endArrow=ERone;endFill=1;rounded=0;fontFamily=Helvetica;fontColor=default;" edge="1" parent="1">
          <mxGeometry width="100" height="100" relative="1" as="geometry">
            <mxPoint x="360" y="270" as="sourcePoint" />
            <mxPoint x="460" y="170" as="targetPoint" />
          </mxGeometry>
        </mxCell>
      </root>
    </mxGraphModel>
  </diagram>
  <diagram id="FN6SvE5m2ZrhRVYXsSbI" name="Trang-4">
    <mxGraphModel dx="938" dy="421" grid="1" gridSize="10" guides="1" tooltips="1" connect="1" arrows="1" fold="1" page="1" pageScale="1" pageWidth="827" pageHeight="1169" math="0" shadow="0">
      <root>
        <mxCell id="0" />
        <mxCell id="1" parent="0" />
        <mxCell id="nq6WM9KqExZHS70Pfh_M-1" value="" style="edgeStyle=entityRelationEdgeStyle;fontSize=12;html=1;endArrow=ERone;endFill=1;rounded=0;fontFamily=Helvetica;fontColor=default;" edge="1" parent="1">
          <mxGeometry width="100" height="100" relative="1" as="geometry">
            <mxPoint x="360" y="270" as="sourcePoint" />
            <mxPoint x="460" y="170" as="targetPoint" />
          </mxGeometry>
        </mxCell>
      </root>
    </mxGraphModel>
  </diagram>
  <diagram id="HuSIQ7iu2tdK7qn-n0kl" name="Trang-5">
    <mxGraphModel dx="938" dy="421" grid="1" gridSize="10" guides="1" tooltips="1" connect="1" arrows="1" fold="1" page="1" pageScale="1" pageWidth="827" pageHeight="1169" math="0" shadow="0">
      <root>
        <mxCell id="0" />
        <mxCell id="1" parent="0" />
        <mxCell id="42z7qrzMYB014WKMfK_E-1" value="" style="edgeStyle=entityRelationEdgeStyle;fontSize=12;html=1;endArrow=ERone;endFill=1;rounded=0;fontFamily=Helvetica;fontColor=default;" edge="1" parent="1">
          <mxGeometry width="100" height="100" relative="1" as="geometry">
            <mxPoint x="360" y="270" as="sourcePoint" />
            <mxPoint x="460" y="170" as="targetPoint" />
          </mxGeometry>
        </mxCell>
      </root>
    </mxGraphModel>
  </diagram>
  <diagram id="vanValnZYa8OYivbtZ4p" name="Trang-6">
    <mxGraphModel dx="794" dy="387" grid="1" gridSize="10" guides="1" tooltips="1" connect="1" arrows="1" fold="1" page="1" pageScale="1" pageWidth="827" pageHeight="1169" math="0" shadow="0">
      <root>
        <mxCell id="0" />
        <mxCell id="1" parent="0" />
        <mxCell id="S0zS6d0jj3qx5t4jE-ut-1" value="" style="edgeStyle=orthogonalEdgeStyle;fontSize=12;html=1;endArrow=ERmany;rounded=0;fontFamily=Helvetica;fontColor=default;curved=1;" edge="1" parent="1">
          <mxGeometry width="100" height="100" relative="1" as="geometry">
            <mxPoint x="310" y="480" as="sourcePoint" />
            <mxPoint x="460" y="130" as="targetPoint" />
            <Array as="points">
              <mxPoint x="330" y="480" />
              <mxPoint x="330" y="500" />
              <mxPoint x="290" y="500" />
              <mxPoint x="290" y="460" />
              <mxPoint x="350" y="460" />
              <mxPoint x="350" y="510" />
              <mxPoint x="270" y="510" />
              <mxPoint x="270" y="440" />
              <mxPoint x="410" y="440" />
              <mxPoint x="410" y="570" />
              <mxPoint x="110" y="570" />
              <mxPoint x="110" y="240" />
              <mxPoint x="400" y="240" />
              <mxPoint x="400" y="450" />
              <mxPoint x="540" y="450" />
              <mxPoint x="540" y="250" />
              <mxPoint x="350" y="250" />
              <mxPoint x="350" y="10" />
              <mxPoint x="630" y="10" />
              <mxPoint x="630" y="230" />
              <mxPoint x="570" y="230" />
              <mxPoint x="570" y="170" />
              <mxPoint x="430" y="170" />
              <mxPoint x="430" y="130" />
            </Array>
          </mxGeometry>
        </mxCell>
      </root>
    </mxGraphModel>
  </diagram>
</mxfile>
